<?xml version="1.0" encoding="utf-8" standalone="no"?>
<!DOCTYPE svg PUBLIC "-//W3C//DTD SVG 1.1//EN"
  "http://www.w3.org/Graphics/SVG/1.1/DTD/svg11.dtd">
<svg xmlns:xlink="http://www.w3.org/1999/xlink" width="330.299375pt" height="435.27875pt" viewBox="0 0 330.299375 435.27875" xmlns="http://www.w3.org/2000/svg" version="1.1">
 <metadata>
  <rdf:RDF xmlns:dc="http://purl.org/dc/elements/1.1/" xmlns:cc="http://creativecommons.org/ns#" xmlns:rdf="http://www.w3.org/1999/02/22-rdf-syntax-ns#">
   <cc:Work>
    <dc:type rdf:resource="http://purl.org/dc/dcmitype/StillImage"/>
    <dc:date>2024-12-28T21:37:43.748925</dc:date>
    <dc:format>image/svg+xml</dc:format>
    <dc:creator>
     <cc:Agent>
      <dc:title>Matplotlib v3.7.1, https://matplotlib.org/</dc:title>
     </cc:Agent>
    </dc:creator>
   </cc:Work>
  </rdf:RDF>
 </metadata>
 <defs>
  <style type="text/css">*{stroke-linejoin: round; stroke-linecap: butt}</style>
 </defs>
 <g id="figure_1">
  <g id="patch_1">
   <path d="M 0 435.27875 
L 330.299375 435.27875 
L 330.299375 0 
L 0 0 
z
" style="fill: #ffffff"/>
  </g>
  <g id="axes_1">
   <g id="patch_2">
    <path d="M 44.099375 395.28 
L 323.099375 395.28 
L 323.099375 7.2 
L 44.099375 7.2 
z
" style="fill: #ffffff"/>
   </g>
   <g id="matplotlib.axis_1">
    <g id="xtick_1">
     <g id="line2d_1">
      <defs>
       <path id="mf2d7d58e01" d="M 0 0 
L 0 3.5 
" style="stroke: #000000; stroke-width: 0.8"/>
      </defs>
      <g>
       <use xlink:href="#mf2d7d58e01" x="56.781193" y="395.28" style="stroke: #000000; stroke-width: 0.8"/>
      </g>
     </g>
     <g id="text_1">
      <text style="font: 12px 'Times New Roman'; text-anchor: middle" x="56.781193" y="410.6125" transform="rotate(-0 56.781193 410.6125)">0.0</text>
     </g>
    </g>
    <g id="xtick_2">
     <g id="line2d_2">
      <g>
       <use xlink:href="#mf2d7d58e01" x="107.508466" y="395.28" style="stroke: #000000; stroke-width: 0.8"/>
      </g>
     </g>
     <g id="text_2">
      <text style="font: 12px 'Times New Roman'; text-anchor: middle" x="107.508466" y="410.6125" transform="rotate(-0 107.508466 410.6125)">0.2</text>
     </g>
    </g>
    <g id="xtick_3">
     <g id="line2d_3">
      <g>
       <use xlink:href="#mf2d7d58e01" x="158.235739" y="395.28" style="stroke: #000000; stroke-width: 0.8"/>
      </g>
     </g>
     <g id="text_3">
      <text style="font: 12px 'Times New Roman'; text-anchor: middle" x="158.235739" y="410.6125" transform="rotate(-0 158.235739 410.6125)">0.4</text>
     </g>
    </g>
    <g id="xtick_4">
     <g id="line2d_4">
      <g>
       <use xlink:href="#mf2d7d58e01" x="208.963011" y="395.28" style="stroke: #000000; stroke-width: 0.8"/>
      </g>
     </g>
     <g id="text_4">
      <text style="font: 12px 'Times New Roman'; text-anchor: middle" x="208.963011" y="410.6125" transform="rotate(-0 208.963011 410.6125)">0.6</text>
     </g>
    </g>
    <g id="xtick_5">
     <g id="line2d_5">
      <g>
       <use xlink:href="#mf2d7d58e01" x="259.690284" y="395.28" style="stroke: #000000; stroke-width: 0.8"/>
      </g>
     </g>
     <g id="text_5">
      <text style="font: 12px 'Times New Roman'; text-anchor: middle" x="259.690284" y="410.6125" transform="rotate(-0 259.690284 410.6125)">0.8</text>
     </g>
    </g>
    <g id="xtick_6">
     <g id="line2d_6">
      <g>
       <use xlink:href="#mf2d7d58e01" x="310.417557" y="395.28" style="stroke: #000000; stroke-width: 0.8"/>
      </g>
     </g>
     <g id="text_6">
      <text style="font: 12px 'Times New Roman'; text-anchor: middle" x="310.417557" y="410.6125" transform="rotate(-0 310.417557 410.6125)">1.0</text>
     </g>
    </g>
    <g id="text_7">
     <text style="font: 12px 'Times New Roman'; text-anchor: middle" x="183.599375" y="425.511875" transform="rotate(-0 183.599375 425.511875)">Recall</text>
    </g>
   </g>
   <g id="matplotlib.axis_2">
    <g id="ytick_1">
     <g id="line2d_7">
      <defs>
       <path id="m27c6d4d8f9" d="M 0 0 
L -3.5 0 
" style="stroke: #000000; stroke-width: 0.8"/>
      </defs>
      <g>
       <use xlink:href="#m27c6d4d8f9" x="44.099375" y="377.64" style="stroke: #000000; stroke-width: 0.8"/>
      </g>
     </g>
     <g id="text_8">
      <text style="font: 12px 'Times New Roman'; text-anchor: end" x="37.099375" y="381.80625" transform="rotate(-0 37.099375 381.80625)">0.0</text>
     </g>
    </g>
    <g id="ytick_2">
     <g id="line2d_8">
      <g>
       <use xlink:href="#m27c6d4d8f9" x="44.099375" y="307.08" style="stroke: #000000; stroke-width: 0.8"/>
      </g>
     </g>
     <g id="text_9">
      <text style="font: 12px 'Times New Roman'; text-anchor: end" x="37.099375" y="311.24625" transform="rotate(-0 37.099375 311.24625)">0.2</text>
     </g>
    </g>
    <g id="ytick_3">
     <g id="line2d_9">
      <g>
       <use xlink:href="#m27c6d4d8f9" x="44.099375" y="236.52" style="stroke: #000000; stroke-width: 0.8"/>
      </g>
     </g>
     <g id="text_10">
      <text style="font: 12px 'Times New Roman'; text-anchor: end" x="37.099375" y="240.68625" transform="rotate(-0 37.099375 240.68625)">0.4</text>
     </g>
    </g>
    <g id="ytick_4">
     <g id="line2d_10">
      <g>
       <use xlink:href="#m27c6d4d8f9" x="44.099375" y="165.96" style="stroke: #000000; stroke-width: 0.8"/>
      </g>
     </g>
     <g id="text_11">
      <text style="font: 12px 'Times New Roman'; text-anchor: end" x="37.099375" y="170.12625" transform="rotate(-0 37.099375 170.12625)">0.6</text>
     </g>
    </g>
    <g id="ytick_5">
     <g id="line2d_11">
      <g>
       <use xlink:href="#m27c6d4d8f9" x="44.099375" y="95.4" style="stroke: #000000; stroke-width: 0.8"/>
      </g>
     </g>
     <g id="text_12">
      <text style="font: 12px 'Times New Roman'; text-anchor: end" x="37.099375" y="99.56625" transform="rotate(-0 37.099375 99.56625)">0.8</text>
     </g>
    </g>
    <g id="ytick_6">
     <g id="line2d_12">
      <g>
       <use xlink:href="#m27c6d4d8f9" x="44.099375" y="24.84" style="stroke: #000000; stroke-width: 0.8"/>
      </g>
     </g>
     <g id="text_13">
      <text style="font: 12px 'Times New Roman'; text-anchor: end" x="37.099375" y="29.00625" transform="rotate(-0 37.099375 29.00625)">1.0</text>
     </g>
    </g>
    <g id="text_14">
     <text style="font: 12px 'Times New Roman'; text-anchor: middle" x="15.5325" y="201.24" transform="rotate(-90 15.5325 201.24)">Precision</text>
    </g>
   </g>
   <g id="line2d_13">
    <path d="M 310.417557 256.720645 
L 310.325743 186.026823 
L 310.279836 186.042675 
L 310.279836 185.929549 
L 310.188022 164.780015 
L 310.142115 164.795313 
L 310.142115 164.678915 
L 310.050301 161.99657 
L 310.004394 162.011767 
L 310.004394 161.916156 
L 309.912579 158.545597 
L 309.866672 158.560658 
L 309.866672 158.461907 
L 309.774858 153.515412 
L 309.728951 153.530247 
L 309.728951 153.426851 
L 309.637137 149.669282 
L 309.545323 149.698578 
L 309.545323 149.591538 
L 309.453509 148.30125 
L 309.361695 148.276228 
L 309.361695 148.222012 
L 309.269881 145.061791 
L 309.223974 145.076202 
L 309.223974 144.964634 
L 309.13216 142.966525 
L 309.086253 142.980821 
L 309.086253 142.86717 
L 308.994439 140.917577 
L 308.948532 140.931755 
L 308.948532 140.816048 
L 308.856718 139.563952 
L 308.810811 139.578053 
L 308.810811 139.49024 
L 308.718997 137.62929 
L 308.627182 137.597733 
L 308.627182 137.567958 
L 308.535368 136.908981 
L 308.489461 136.922927 
L 308.489461 136.833029 
L 308.397647 133.978609 
L 308.35174 133.992363 
L 308.35174 133.900212 
L 308.259926 133.342389 
L 308.214019 133.356106 
L 308.214019 133.263422 
L 308.122205 128.949386 
L 308.076298 128.962792 
L 308.076298 128.866691 
L 307.984484 127.507634 
L 307.938577 127.520938 
L 307.938577 127.423666 
L 307.846763 126.473221 
L 307.800856 126.486452 
L 307.800856 126.38832 
L 307.709042 125.297053 
L 307.571321 125.237381 
L 307.479507 124.600757 
L 307.4336 124.613861 
L 307.4336 124.514113 
L 307.341786 123.101679 
L 307.158157 123.12 
L 307.158157 123.052649 
L 307.066343 121.21211 
L 307.020436 121.22496 
L 307.020436 121.122353 
L 306.928622 120.70239 
L 306.836808 120.65931 
L 306.836808 120.62494 
L 306.744994 120.375235 
L 306.515459 120.163209 
L 306.469552 119.933956 
L 306.423645 119.946729 
L 306.377738 119.959506 
L 306.377738 119.855616 
L 306.285924 117.961235 
L 306.240017 117.973848 
L 306.240017 117.868293 
L 306.148203 117.399696 
L 306.056389 117.318761 
L 306.010482 117.154321 
L 305.964575 117.166877 
L 305.87276 117.15656 
L 305.87276 117.085651 
L 305.780946 116.755583 
L 305.689132 116.780652 
L 305.689132 116.673888 
L 305.597318 114.906282 
L 305.505504 114.858807 
L 305.505504 114.822676 
L 305.41369 114.304168 
L 305.275969 114.268548 
L 305.275969 114.232221 
L 305.184155 113.308679 
L 305.046434 113.272202 
L 305.046434 113.235565 
L 305.000527 113.101157 
L 304.95462 113.113398 
L 304.862806 112.954286 
L 304.770992 112.684404 
L 304.541456 112.671784 
L 304.541456 112.634906 
L 304.449642 111.585205 
L 304.403735 111.597333 
L 304.403735 111.485706 
L 304.311921 111.062422 
L 304.266014 111.074506 
L 304.266014 110.962378 
L 304.1742 110.499463 
L 304.082386 110.448435 
L 304.082386 110.410866 
L 304.036479 110.121937 
L 303.990572 110.133945 
L 303.898758 110.044903 
L 303.806944 109.615604 
L 303.761037 109.627574 
L 303.761037 109.513994 
L 303.669223 109.006501 
L 303.623316 109.01842 
L 303.623316 108.904258 
L 303.531502 108.851906 
L 303.439688 108.837618 
L 303.439688 108.761362 
L 303.347874 108.594309 
L 303.210152 108.515316 
L 303.118338 107.077645 
L 303.072431 107.0894 
L 303.072431 107.012033 
L 302.980617 106.764352 
L 302.93471 106.776082 
L 302.93471 106.698493 
L 302.842896 106.138492 
L 302.751082 106.12285 
L 302.751082 106.083844 
L 302.659268 105.716443 
L 302.521547 105.673065 
L 302.429733 105.461107 
L 302.292012 105.417464 
L 302.200198 104.494627 
L 302.154291 104.506165 
L 302.154291 104.427018 
L 302.062477 104.053585 
L 301.970663 103.877861 
L 301.878848 103.622077 
L 301.832941 103.63354 
L 301.832941 103.553783 
L 301.741127 103.3371 
L 301.69522 103.34854 
L 301.69522 103.268571 
L 301.603406 102.890818 
L 301.557499 102.902217 
L 301.557499 102.821943 
L 301.465685 102.160363 
L 301.419778 102.171692 
L 301.419778 102.090945 
L 301.327964 101.506353 
L 301.144336 101.470235 
L 301.098429 101.3596 
L 301.052522 101.370861 
L 300.960708 101.393393 
L 300.960708 101.312037 
L 300.868894 100.967788 
L 300.822987 100.979018 
L 300.822987 100.897371 
L 300.731173 100.428822 
L 300.547544 100.391517 
L 300.45573 99.961708 
L 300.409823 99.972849 
L 300.409823 99.890467 
L 300.318009 99.1275 
L 300.226195 99.108155 
L 300.226195 99.066683 
L 300.134381 98.548402 
L 300.088474 98.559403 
L 300.088474 98.47607 
L 299.99666 98.164163 
L 299.813032 98.124406 
L 299.721218 97.559352 
L 299.675311 97.570263 
L 299.675311 97.486195 
L 299.583497 97.08682 
L 299.078519 96.104106 
L 298.986705 95.91262 
L 298.940798 95.923379 
L 298.940798 95.838062 
L 298.848984 95.60325 
L 298.803077 95.61398 
L 298.803077 95.528427 
L 298.711263 95.207067 
L 298.573542 95.196224 
L 298.573542 95.153287 
L 298.573542 95.024395 
L 298.481728 95.045751 
L 298.389914 95.02411 
L 298.389914 94.981087 
L 298.2981 94.743978 
L 298.206286 94.635851 
L 298.114472 93.964625 
L 297.930844 93.920098 
L 297.839029 93.331713 
L 297.793122 93.167569 
L 297.747215 92.871862 
L 297.701308 92.882325 
L 297.471773 92.847021 
L 297.379959 92.692427 
L 297.196331 92.646386 
L 297.104517 92.535338 
L 296.874982 92.499527 
L 296.783168 92.167411 
L 296.737261 92.177833 
L 296.737261 92.089427 
L 296.645447 91.977517 
L 296.507725 91.964453 
L 296.507725 91.920149 
L 296.461818 91.708799 
L 296.415911 91.71918 
L 296.232283 91.449518 
L 296.140469 90.935012 
L 296.002748 90.965932 
L 296.002748 90.8765 
L 295.910934 90.314296 
L 295.865027 90.324535 
L 295.865027 90.23465 
L 295.81912 90.15493 
L 295.773213 90.165153 
L 295.727306 90.175379 
L 295.727306 90.085349 
L 295.635492 89.790165 
L 295.543678 89.720213 
L 295.497771 88.778403 
L 295.451864 88.788472 
L 295.268236 88.783262 
L 295.268236 88.73773 
L 295.176421 88.393015 
L 294.900979 88.361846 
L 294.809165 88.107236 
L 294.487816 88.131537 
L 294.487816 88.085649 
L 294.396002 87.691953 
L 294.350095 87.701934 
L 294.350095 87.609817 
L 294.304188 87.435358 
L 294.258281 87.445311 
L 294.074653 87.392793 
L 294.028746 87.310318 
L 293.982839 87.320268 
L 293.569675 87.363656 
L 293.569675 87.317345 
L 293.477861 86.966174 
L 293.431954 86.976104 
L 293.431954 86.883165 
L 293.34014 86.716908 
L 293.294233 86.726812 
L 293.294233 86.63366 
L 293.202419 86.186679 
L 293.156512 86.196522 
L 293.156512 86.102975 
L 293.064698 85.982178 
L 293.018791 85.992 
L 293.018791 85.898268 
L 292.926977 85.495248 
L 292.88107 85.505014 
L 292.88107 85.410913 
L 292.835163 85.185123 
L 292.789256 85.194853 
L 292.605628 85.233804 
L 292.605628 85.139419 
L 292.513814 84.543737 
L 292.376092 84.477824 
L 292.284278 84.259549 
L 292.146557 84.240876 
L 292.146557 84.193277 
L 292.054743 83.735579 
L 291.962929 83.706938 
L 291.962929 83.659128 
L 291.871115 83.199192 
L 291.779301 83.170214 
L 291.779301 83.122192 
L 291.687487 82.948913 
L 291.64158 82.9584 
L 291.64158 82.862146 
L 291.549766 82.543631 
L 291.503859 82.553071 
L 291.503859 82.456495 
L 291.412045 82.233578 
L 291.366138 82.242982 
L 291.366138 82.146147 
L 291.274324 81.679678 
L 290.952974 81.647763 
L 290.86116 81.276376 
L 290.677532 81.215858 
L 290.677532 80.579018 
L 290.585718 80.597448 
L 290.447997 80.625114 
L 290.447997 80.52683 
L 290.356183 80.299202 
L 290.310276 80.30839 
L 290.310276 80.209838 
L 290.310276 80.061887 
L 290.218462 80.080206 
L 290.172555 80.08937 
L 290.172555 79.990614 
L 290.126648 79.703067 
L 290.080741 79.712183 
L 289.94302 79.640466 
L 289.897113 79.500809 
L 289.851206 79.211876 
L 289.805298 79.220937 
L 289.438042 79.193931 
L 289.346228 78.512837 
L 289.254414 78.530809 
L 289.254414 78.430621 
L 289.1626 78.14753 
L 289.024879 78.073837 
L 288.933065 77.840034 
L 288.887158 77.848941 
L 288.887158 77.748137 
L 288.795344 77.46303 
L 288.70353 77.278423 
L 288.657623 77.135312 
L 288.611716 77.144132 
L 288.519902 77.161782 
L 288.519902 77.060354 
L 288.428087 76.824049 
L 288.198552 76.766239 
L 288.198552 76.664403 
L 288.106738 76.68195 
L 288.060831 76.690728 
L 288.060831 76.58878 
L 287.969017 76.299973 
L 287.92311 76.155275 
L 287.831296 75.865289 
L 287.785389 75.72 
L 287.739482 75.574513 
L 287.693575 75.583149 
L 287.555854 75.506167 
L 287.46404 75.3689 
L 287.418133 75.377517 
L 287.418133 75.274391 
L 287.326319 74.981715 
L 287.280412 74.990282 
L 287.280412 74.88683 
L 287.188598 74.644928 
L 287.096783 74.610108 
L 287.096783 74.558219 
L 287.004969 74.36746 
L 286.867248 74.340926 
L 286.867248 74.288893 
L 286.821341 73.984761 
L 286.775434 73.993204 
L 286.454085 73.947915 
L 286.408178 73.851809 
L 286.362271 73.860248 
L 286.270457 73.824806 
L 286.270457 73.77246 
L 286.22455 73.676132 
L 286.178643 73.684552 
L 286.086829 73.7014 
L 286.086829 73.596522 
L 285.995015 72.824219 
L 285.949108 72.832523 
L 285.949108 72.726981 
L 285.857294 72.532201 
L 285.765479 72.442914 
L 285.673665 71.875912 
L 285.581851 71.785904 
L 285.490037 71.055385 
L 285.44413 71.063447 
L 285.44413 70.95644 
L 285.44413 70.902908 
L 285.352316 70.918994 
L 285.306409 70.927042 
L 285.306409 70.819874 
L 285.260502 70.505909 
L 285.214595 70.513898 
L 284.893246 70.462288 
L 284.801432 69.830831 
L 284.663711 69.854552 
L 284.663711 69.746329 
L 284.663711 69.583852 
L 284.571897 69.599599 
L 284.480083 69.398323 
L 284.480083 69.235347 
L 284.388268 69.251001 
L 284.342361 69.258833 
L 284.342361 69.150037 
L 284.250547 68.893267 
L 284.20464 68.901049 
L 284.20464 68.791935 
L 284.112826 68.370112 
L 284.021012 68.330755 
L 284.021012 68.275961 
L 283.929198 67.90714 
L 283.837384 67.922428 
L 283.837384 67.812443 
L 283.74557 67.662534 
L 283.378314 67.613153 
L 283.378314 67.557949 
L 283.2865 67.573167 
L 283.148779 67.485463 
L 283.056964 66.668755 
L 282.919243 66.635562 
L 282.919243 66.579896 
L 282.827429 66.371912 
L 282.781522 66.379355 
L 282.781522 66.267752 
L 282.735615 66.051699 
L 282.689708 66.059095 
L 282.50608 65.976759 
L 282.414266 65.655113 
L 282.276545 65.677156 
L 282.276545 65.564797 
L 282.230638 65.234519 
L 282.184731 65.241803 
L 282.04701 65.207298 
L 282.04701 65.094486 
L 281.955196 65.109027 
L 281.679753 65.096203 
L 281.633846 64.253275 
L 281.587939 64.260424 
L 281.542032 64.267576 
L 281.542032 64.210713 
L 281.496125 63.990163 
L 281.450218 63.997275 
L 281.358404 64.011506 
L 281.358404 63.954504 
L 281.26659 63.340128 
L 280.991148 63.382258 
L 280.991148 63.324933 
L 280.945241 62.987507 
L 280.899334 62.994476 
L 280.853427 63.001447 
L 280.853427 62.943947 
L 280.761613 62.554662 
L 280.715706 62.561567 
L 280.715706 62.503871 
L 280.623892 62.286599 
L 280.577985 62.293465 
L 280.577985 62.235635 
L 280.486171 61.495388 
L 280.440264 61.50213 
L 280.440264 61.443974 
L 280.348449 61.282791 
L 280.256635 61.237937 
L 280.256635 61.121312 
L 280.164821 61.13469 
L 280.118914 61.141383 
L 280.118914 61.08301 
L 280.0271 60.745578 
L 279.659844 60.740093 
L 279.56803 60.459859 
L 279.430309 60.479666 
L 279.430309 60.420868 
L 279.338495 60.139647 
L 279.154867 60.165878 
L 279.154867 60.10689 
L 279.10896 59.995382 
L 279.063052 60.001919 
L 278.925331 59.962441 
L 278.833517 59.738808 
L 278.78761 59.74531 
L 278.78761 59.686068 
L 278.649889 59.527612 
L 278.603982 59.534085 
L 278.603982 59.474714 
L 278.512168 59.368801 
L 278.053098 58.956342 
L 277.915377 58.975533 
L 277.915377 58.915769 
L 277.86947 58.682838 
L 277.823563 58.689193 
L 277.685841 58.70827 
L 277.685841 58.648343 
L 277.594027 58.360978 
L 277.318585 58.338719 
L 277.318585 58.158153 
L 277.226771 58.170718 
L 277.134957 58.183294 
L 277.043143 57.833765 
L 276.951329 57.785784 
L 276.859515 57.556124 
L 276.721794 57.574709 
L 276.721794 57.514091 
L 276.62998 57.344417 
L 276.492259 57.302151 
L 276.400445 57.131986 
L 276.30863 57.144255 
L 276.216816 56.729629 
L 276.170909 56.735699 
L 276.170909 56.674609 
L 276.125002 56.37482 
L 276.079095 56.380831 
L 275.987281 56.147634 
L 275.895467 56.036791 
L 275.84956 56.042751 
L 275.84956 55.981307 
L 275.757746 55.87021 
L 275.665932 55.882081 
L 275.665932 55.820524 
L 275.574118 55.400675 
L 275.298676 55.374024 
L 275.206862 55.200046 
L 275.160955 55.205879 
L 275.160955 55.14392 
L 275.069141 54.845311 
L 274.977326 54.608137 
L 274.977326 54.483631 
L 274.885512 54.495061 
L 274.793698 54.5065 
L 274.793698 54.444167 
L 274.747791 54.137798 
L 274.701884 54.143458 
L 274.655977 54.149119 
L 274.655977 54.086609 
L 274.655977 53.585655 
L 274.564163 53.596786 
L 274.472349 53.545153 
L 274.380535 53.367749 
L 274.196907 53.326957 
L 274.105093 52.643853 
L 274.059186 52.649264 
L 274.059186 52.586 
L 273.967372 52.406797 
L 273.508301 52.397118 
L 273.462394 52.275404 
L 273.416487 52.280766 
L 273.278766 52.233233 
L 273.278766 51.914706 
L 273.186952 51.925311 
L 273.095138 51.872099 
L 273.049231 51.685734 
L 273.003324 51.691 
L 272.819696 51.712085 
L 272.819696 51.64809 
L 272.819696 51.520024 
L 272.727882 51.530509 
L 272.636068 51.541003 
L 272.636068 51.476886 
L 272.544254 51.359008 
L 272.314718 51.385125 
L 272.314718 51.320851 
L 272.268811 50.875359 
L 272.222904 50.880497 
L 272.13109 50.89078 
L 272.13109 50.826256 
L 272.039276 50.383976 
L 271.855648 50.339406 
L 271.809741 50.084955 
L 271.763834 50.08996 
L 271.304764 50.075049 
L 271.21295 49.75922 
L 271.121136 49.76914 
L 271.121136 49.703866 
L 271.029322 49.583096 
L 270.707972 49.552193 
L 270.662065 49.294974 
L 270.616158 49.29986 
L 270.524344 49.243998 
L 270.524344 49.11264 
L 270.43253 49.122353 
L 270.340716 49.132074 
L 270.340716 49.066306 
L 270.294809 48.543971 
L 270.248902 48.548726 
L 270.157088 48.558242 
L 270.157088 48.492188 
L 270.065274 48.303291 
L 269.881646 48.255929 
L 269.789832 48.132754 
L 269.514389 48.094505 
L 269.514389 48.028065 
L 269.422575 48.037418 
L 269.284854 47.984933 
L 269.19304 47.794455 
L 269.055319 47.741678 
L 268.963505 47.617413 
L 268.73397 47.573617 
L 268.73397 47.506721 
L 268.642156 47.515912 
L 268.550342 47.525112 
L 268.550342 47.458138 
L 268.458528 47.131914 
L 268.228992 47.087356 
L 268.183085 46.89 
L 268.137178 46.89449 
L 268.091271 46.898982 
L 268.091271 46.831607 
L 268.045364 46.701231 
L 267.999457 46.705688 
L 267.861736 46.651549 
L 267.861736 46.516424 
L 267.769922 46.525277 
L 267.586294 46.475323 
L 267.540387 46.208692 
L 267.49448 46.213066 
L 267.402666 46.153946 
L 267.356759 46.022459 
L 267.310852 46.026801 
L 267.173131 45.971815 
L 267.081317 45.571621 
L 266.943595 45.516126 
L 266.897688 45.178481 
L 266.851781 45.182669 
L 266.622246 45.135093 
L 266.622246 44.997921 
L 266.530432 45.00624 
L 266.438618 45.014566 
L 266.438618 44.945885 
L 266.438618 44.808436 
L 266.346804 44.816689 
L 266.25499 44.824949 
L 266.25499 44.756129 
L 266.25499 44.68728 
L 266.163176 44.695493 
L 265.979548 44.71194 
L 265.979548 44.642983 
L 265.979548 44.504981 
L 265.887734 44.513134 
L 265.47457 44.480715 
L 265.47457 44.411494 
L 265.382756 44.41963 
L 264.923686 44.391 
L 264.877779 44.256135 
L 264.831872 44.260183 
L 264.55643 44.214901 
L 264.510523 44.079616 
L 264.464616 44.083636 
L 264.23508 44.033974 
L 264.23508 43.964152 
L 264.143266 43.972161 
L 263.867824 43.926265 
L 263.77601 43.654025 
L 263.638289 43.595705 
L 263.592382 43.459176 
L 263.546475 43.463091 
L 263.362847 43.408421 
L 263.271033 43.134435 
L 262.903776 43.094699 
L 262.903776 43.02403 
L 262.811962 43.031716 
L 262.490613 42.987841 
L 262.490613 42.846099 
L 262.398799 42.853729 
L 262.215171 42.869008 
L 262.215171 42.798006 
L 262.123357 42.521206 
L 262.07745 42.524962 
L 262.07745 42.453767 
L 261.985636 42.318716 
L 261.802008 42.333594 
L 261.802008 42.262222 
L 261.756101 42.123067 
L 261.710194 42.126749 
L 261.434751 42.148874 
L 261.434751 42.077295 
L 261.388844 41.937694 
L 261.342937 41.941345 
L 260.470704 41.939035 
L 260.470704 41.794988 
L 260.37889 41.802267 
L 259.552563 41.79569 
L 259.552563 41.650867 
L 259.460749 41.658119 
L 259.323028 41.596477 
L 259.323028 41.451317 
L 259.231214 41.458496 
L 259.093493 41.469276 
L 259.093493 41.396574 
L 259.047586 41.254629 
L 259.001679 41.258182 
L 258.81805 41.272409 
L 258.81805 41.199523 
L 258.772143 40.91115 
L 258.726236 40.914637 
L 258.450794 40.862425 
L 258.450794 40.64274 
L 258.35898 40.649615 
L 257.762189 40.62093 
L 257.670375 40.48062 
L 257.578561 40.487455 
L 257.578561 40.413776 
L 257.578561 40.266323 
L 257.486746 40.273071 
L 257.165397 40.222822 
L 257.073583 40.081579 
L 256.614513 40.040879 
L 256.522699 39.89901 
L 256.339071 39.837885 
L 256.339071 39.689008 
L 256.247257 39.695556 
L 256.201349 39.698831 
L 256.201349 39.624296 
L 256.109535 39.481589 
L 255.925907 39.419801 
L 255.834093 39.276629 
L 255.053674 39.255989 
L 255.053674 39.180826 
L 254.96186 39.1872 
L 254.594603 39.137395 
L 254.594603 39.062004 
L 254.502789 39.068342 
L 254.410975 38.999197 
L 254.410975 38.923675 
L 254.319161 38.92996 
L 254.089626 38.870027 
L 254.043719 38.645903 
L 253.997812 38.648991 
L 253.860091 38.658263 
L 253.860091 38.582377 
L 253.860091 38.506458 
L 253.768277 38.512581 
L 253.171485 38.476315 
L 253.171485 38.400081 
L 253.079671 38.406179 
L 252.436973 38.372491 
L 252.436973 38.295924 
L 252.345159 38.302 
L 252.115623 38.240497 
L 252.023809 38.092953 
L 251.656553 38.04 
L 251.656553 37.962976 
L 251.564739 37.968931 
L 251.335204 37.906667 
L 251.24339 37.758081 
L 250.279342 37.7424 
L 250.279342 37.664691 
L 250.187528 37.670558 
L 249.54483 37.633757 
L 249.54483 37.555702 
L 249.453015 37.561543 
L 249.269387 37.495047 
L 249.269387 37.260249 
L 249.177573 37.265967 
L 249.131666 37.268828 
L 249.131666 37.190438 
L 249.131666 37.112011 
L 249.039852 37.117668 
L 248.810317 37.053247 
L 248.810317 36.974626 
L 248.718503 36.980231 
L 247.662641 36.965964 
L 247.662641 36.886829 
L 247.570827 36.892429 
L 247.433106 36.821577 
L 247.341292 36.589045 
L 247.249478 36.515041 
L 247.249478 36.435524 
L 247.157664 36.440933 
L 247.019943 36.369412 
L 246.928129 36.215327 
L 246.652686 36.151397 
L 246.652686 36.071461 
L 246.560872 36.076721 
L 246.423151 36.084622 
L 246.423151 36.004557 
L 246.423151 35.844315 
L 246.331337 35.849479 
L 245.550918 35.813044 
L 245.550918 35.732482 
L 245.459104 35.737618 
L 245.137754 35.674869 
L 245.137754 35.594064 
L 245.04594 35.599149 
L 244.862312 35.609333 
L 244.862312 35.528379 
L 244.770498 35.371343 
L 244.311428 35.315059 
L 244.265521 35.073381 
L 244.219614 35.075815 
L 243.255566 35.045307 
L 243.255566 34.963386 
L 243.163752 34.96823 
L 243.071938 34.891041 
L 243.071938 34.808966 
L 242.980124 34.813742 
L 242.521053 34.75535 
L 242.521053 34.590541 
L 242.429239 34.59523 
L 241.740634 34.630541 
L 241.740634 34.547748 
L 241.694727 34.384348 
L 241.64882 34.386654 
L 241.143842 34.328927 
L 241.052028 34.166995 
L 239.904352 34.140073 
L 239.904352 34.056211 
L 239.812538 34.060713 
L 238.343513 34.048766 
L 238.343513 33.964138 
L 238.251699 33.968635 
L 237.563094 33.917486 
L 237.563094 33.832428 
L 237.47128 33.83688 
L 236.644953 33.791642 
L 236.644953 33.706086 
L 236.553139 33.7105 
L 235.680905 33.66662 
L 235.680905 33.580541 
L 235.589091 33.584917 
L 234.946393 33.529218 
L 234.854579 33.187143 
L 234.257787 33.127547 
L 234.165973 32.957522 
L 234.028252 32.963684 
L 234.028252 32.876446 
L 234.028252 32.789165 
L 233.936438 32.793191 
L 230.217968 32.870626 
L 230.217968 32.781423 
L 230.126154 32.785535 
L 228.060338 32.78886 
L 227.968523 32.612148 
L 226.269963 32.596927 
L 226.269963 32.505501 
L 226.178149 32.509565 
L 223.423727 32.540566 
L 223.37782 32.356505 
L 223.331913 32.358533 
L 221.495632 32.346383 
L 221.495632 32.252169 
L 221.403818 32.256216 
L 218.41986 32.294212 
L 218.41986 32.198176 
L 218.328046 32.20227 
L 216.767207 32.175544 
L 216.767207 32.078449 
L 216.675393 32.08252 
L 215.803159 32.02371 
L 215.803159 31.925941 
L 215.711345 31.929952 
L 214.288227 31.893985 
L 214.288227 31.7952 
L 214.196413 31.799177 
L 213.461901 31.731813 
L 213.415994 31.534882 
L 213.370087 31.536808 
L 212.819202 31.460092 
L 212.819202 31.360127 
L 212.727388 31.363895 
L 212.54376 31.27125 
L 212.54376 31.170999 
L 212.451946 31.174666 
L 211.441991 31.114286 
L 211.441991 31.013228 
L 211.350177 31.016831 
L 208.136685 31.042384 
L 208.136685 30.939076 
L 208.044871 30.942714 
L 207.539893 30.859036 
L 207.539893 30.75521 
L 207.448079 30.758754 
L 205.244542 30.739666 
L 205.152728 30.532055 
L 202.031049 30.544478 
L 202.031049 30.436516 
L 201.939235 30.44 
L 198.909371 30.44712 
L 198.909371 30.336725 
L 198.817557 30.340223 
L 196.843554 30.304472 
L 196.843554 30.192356 
L 196.75174 30.195814 
L 194.410482 30.285517 
L 194.410482 30.171406 
L 194.318667 30.174911 
L 193.446434 30.208442 
L 193.446434 30.093475 
L 193.35462 30.096954 
L 191.885595 30.153253 
L 191.885595 30.03692 
L 191.793781 30.040402 
L 190.692012 30.082553 
L 190.692012 29.965135 
L 190.600198 29.9686 
L 189.911592 29.99474 
L 189.911592 29.876574 
L 189.819778 29.88 
L 189.314801 29.898928 
L 189.314801 29.780164 
L 189.222987 29.783541 
L 187.891683 29.833027 
L 187.891683 29.712928 
L 187.799869 29.716296 
L 187.524426 29.726427 
L 187.524426 29.605916 
L 187.432612 29.60922 
L 185.871773 29.666096 
L 185.871773 29.544 
L 185.779959 29.547303 
L 183.622329 29.626291 
L 183.622329 29.502 
L 183.530514 29.505332 
L 182.061489 29.559306 
L 182.061489 29.433418 
L 181.969675 29.436743 
L 181.648326 29.448418 
L 181.648326 29.322033 
L 181.556512 29.325289 
L 179.307067 29.406568 
L 179.307067 29.277736 
L 179.215253 29.281022 
L 177.470786 29.344394 
L 177.470786 29.213554 
L 177.378972 29.216842 
L 176.736273 29.24 
L 176.736273 28.97646 
L 176.644459 28.979591 
L 172.283291 29.133993 
L 172.191477 28.86328 
L 171.916035 28.872795 
L 171.916035 28.735268 
L 171.824221 28.738343 
L 165.534957 28.961151 
L 165.534957 28.815626 
L 165.443143 28.818947 
L 163.055977 28.907293 
L 163.055977 28.758326 
L 162.964163 28.761676 
L 162.367372 28.783594 
L 162.367372 28.633548 
L 162.275558 28.636814 
L 161.954208 28.64829 
L 161.954208 28.497538 
L 161.862394 28.5007 
L 161.173789 28.524595 
L 161.173789 28.372608 
L 161.081975 28.375686 
L 156.307643 28.543514 
L 156.307643 28.38411 
L 156.215829 28.387349 
L 155.619038 28.408552 
L 155.619038 28.247912 
L 155.527224 28.25105 
L 154.471362 28.287557 
L 154.471362 28.124916 
L 154.379548 28.127978 
L 153.87457 28.144918 
L 153.87457 27.981143 
L 153.782756 27.98409 
L 152.497359 28.025932 
L 152.497359 27.859686 
L 152.405545 27.862561 
L 149.69703 27.949892 
L 149.69703 27.77856 
L 149.605216 27.781442 
L 147.172143 27.85994 
L 147.172143 27.683728 
L 147.080329 27.686596 
L 146.896701 27.69235 
L 146.896701 27.51543 
L 146.850794 27.516783 
L 144.876792 27.576298 
L 144.876792 27.395199 
L 144.784978 27.397846 
L 143.912744 27.423264 
L 143.912744 27.24 
L 143.82093 27.242514 
L 140.148367 27.3476 
L 140.148367 26.964138 
L 140.056553 26.966466 
L 135.92492 27.076772 
L 135.92492 26.874602 
L 135.833106 26.876952 
L 119.306574 27.411429 
L 117.470292 27.488649 
L 117.470292 27.225575 
L 117.424385 27.227368 
L 115.909453 27.288111 
L 115.909453 27.017778 
L 115.817639 27.021144 
L 105.488556 27.480225 
L 105.488556 27.15236 
L 105.396742 27.156698 
L 100.071526 27.439579 
L 100.071526 27.070558 
L 99.979712 27.075269 
L 98.786129 27.138371 
L 98.786129 26.757391 
L 98.694315 26.761569 
L 94.195426 26.99122 
L 94.195426 26.563077 
L 94.103612 26.567295 
L 89.65063 26.8 
L 89.65063 26.312045 
L 89.558816 26.316151 
L 89.191559 26.332807 
L 89.191559 25.83661 
L 89.099745 25.839433 
L 87.401185 25.894709 
L 87.401185 25.368144 
L 87.309371 25.36973 
L 84.646763 25.420263 
L 84.646763 24.84 
L 84.554949 24.84 
L 56.781193 24.84 
L 56.781193 24.84 
" clip-path="url(#p7e3c9fa636)" style="fill: none; stroke: #1f77b4; stroke-width: 2; stroke-linecap: square"/>
   </g>
   <g id="line2d_14">
    <path d="M 310.417557 365.821638 
L 310.417557 296.294142 
L 309.94786 296.410098 
L 309.94786 296.305868 
L 309.94786 195.495172 
L 309.478163 195.658792 
L 309.478163 160.470206 
L 309.008466 160.625567 
L 309.008466 73.052219 
L 308.538769 73.129855 
L 308.538769 58.212973 
L 308.069072 58.269442 
L 308.069072 57.184992 
L 307.599375 57.24 
L 307.599375 55.596923 
L 307.129678 55.649589 
L 307.129678 54.543093 
L 306.659981 54.594217 
L 306.659981 50.083979 
L 305.25089 50.216842 
L 305.25089 49.641406 
L 304.781193 49.68507 
L 304.781193 45.592941 
L 303.841799 45.667191 
L 303.841799 45.072258 
L 302.902405 45.145036 
L 302.902405 44.545946 
L 302.432708 44.581516 
L 302.432708 43.979241 
L 301.493314 44.048711 
L 301.493314 42.222482 
L 300.084223 42.318165 
L 300.084223 41.701765 
L 299.614527 41.732818 
L 299.614527 39.866667 
L 299.14483 39.894545 
L 299.14483 39.266766 
L 293.508466 39.595894 
L 293.508466 38.952 
L 293.038769 38.978931 
L 293.038769 38.331396 
L 286.463011 38.702475 
L 286.463011 38.035276 
L 285.993314 38.061302 
L 285.993314 37.390198 
L 285.523617 37.41505 
L 285.523617 36.74 
L 281.766042 36.931935 
L 281.766042 36.243636 
L 279.887254 36.336538 
L 279.887254 35.64 
L 278.008466 35.728889 
L 278.008466 35.023918 
L 276.599375 35.087303 
L 276.599375 34.375135 
L 276.129678 34.395 
L 276.129678 32.958828 
L 275.190284 32.992941 
L 275.190284 32.267368 
L 268.614527 32.492928 
L 268.614527 31.742609 
L 267.675133 31.772751 
L 267.675133 31.01593 
L 264.856951 31.098093 
L 264.856951 30.328 
L 257.341799 30.530323 
L 257.341799 29.728684 
L 256.872102 29.74 
L 256.872102 28.932807 
L 254.05392 28.990588 
L 254.05392 28.168302 
L 251.235739 28.216077 
L 251.235739 27.378129 
L 239.963011 27.53313 
L 239.963011 26.64 
L 232.917557 26.711618 
L 232.917557 25.778298 
L 181.720587 26.161348 
L 154.008466 26.536154 
L 154.008466 24.84 
L 56.781193 24.84 
L 56.781193 24.84 
" clip-path="url(#p7e3c9fa636)" style="fill: none; stroke: #ff7f0e; stroke-width: 2; stroke-linecap: square"/>
   </g>
   <g id="line2d_15">
    <path d="M 310.417557 208.177816 
L 310.319286 197.492751 
L 310.286529 197.504142 
L 310.286529 197.397116 
L 310.188259 181.642815 
L 310.155502 181.654076 
L 310.155502 181.541408 
L 310.057231 170.466794 
L 310.024475 170.477855 
L 310.024475 170.367654 
L 309.926204 166.71331 
L 309.893447 166.724286 
L 309.893447 166.609995 
L 309.795176 155.551394 
L 309.76242 155.562047 
L 309.76242 155.45339 
L 309.664149 146.883752 
L 309.631392 146.894093 
L 309.631392 146.796294 
L 309.533122 135.19212 
L 309.500365 135.201949 
L 309.500365 135.09393 
L 309.402094 131.525699 
L 309.369337 131.53535 
L 309.369337 131.42398 
L 309.271067 118.181704 
L 309.23831 118.190611 
L 309.23831 118.091546 
L 309.140039 108.400654 
L 309.107282 108.408932 
L 309.107282 108.3022 
L 309.009012 105.357751 
L 308.976255 105.365822 
L 308.976255 105.256606 
L 308.877984 100.187639 
L 308.845228 100.19534 
L 308.845228 100.081877 
L 308.746957 95.751811 
L 308.7142 95.759177 
L 308.7142 95.6713 
L 308.61593 92.522119 
L 308.583173 92.529235 
L 308.583173 92.439285 
L 308.484902 91.134483 
L 308.452145 91.14149 
L 308.452145 91.050615 
L 308.353875 87.760466 
L 308.321118 87.767199 
L 308.321118 87.674122 
L 308.222847 83.920607 
L 308.19009 83.927016 
L 308.19009 83.831406 
L 308.09182 82.601674 
L 308.026306 82.51774 
L 307.928035 80.852903 
L 307.895279 80.85905 
L 307.895279 80.761317 
L 307.797008 76.380094 
L 307.764251 76.385838 
L 307.764251 76.285084 
L 307.698737 73.378798 
L 307.665981 73.384263 
L 307.600467 73.395198 
L 307.600467 73.292366 
L 307.502196 71.062888 
L 307.469439 71.068137 
L 307.469439 70.998501 
L 307.403926 68.869375 
L 307.371169 68.874413 
L 307.305655 68.88449 
L 307.305655 68.778462 
L 307.240141 66.077422 
L 307.207385 66.082186 
L 307.174628 66.08695 
L 307.174628 65.978934 
L 307.076357 64.908585 
L 307.010843 64.845292 
L 307.010843 64.808984 
L 306.912573 62.81228 
L 306.879816 62.816718 
L 306.879816 62.706293 
L 306.781545 62.166116 
L 306.748789 62.17049 
L 306.748789 62.059552 
L 306.650518 61.182051 
L 306.585004 61.078899 
L 306.519491 60.789111 
L 306.486734 60.793346 
L 306.453977 60.797582 
L 306.453977 60.722899 
L 306.388463 60.282427 
L 306.355706 60.286612 
L 306.322949 60.290797 
L 306.322949 60.215836 
L 306.224679 60.003206 
L 306.126408 60.015683 
L 306.126408 59.940532 
L 306.028138 59.312572 
L 305.995381 59.31666 
L 305.995381 59.278904 
L 305.89711 59.14 
L 305.864353 59.144072 
L 305.864353 59.068429 
L 305.766083 58.169807 
L 305.667812 58.105562 
L 305.569542 57.468414 
L 305.504028 57.437944 
L 305.504028 57.399665 
L 305.405757 56.605112 
L 305.373 56.608921 
L 305.373 56.531917 
L 305.27473 56.273429 
L 305.143702 56.249924 
L 305.143702 56.211305 
L 305.045432 55.874513 
L 304.947161 55.88572 
L 304.947161 55.808236 
L 304.848891 55.314701 
L 304.783377 55.322056 
L 304.783377 55.244249 
L 304.685106 54.787473 
L 304.619593 54.755665 
L 304.619593 54.716603 
L 304.521322 54.414512 
L 304.488565 54.418095 
L 304.488565 54.339758 
L 304.390295 54.075914 
L 304.324781 54.004457 
L 304.22651 53.542809 
L 304.193754 53.5463 
L 304.193754 53.467445 
L 304.095483 52.964232 
L 303.931699 52.902169 
L 303.833428 52.674489 
L 303.800671 52.677889 
L 303.800671 52.598485 
L 303.767914 52.363404 
L 303.702401 52.370137 
L 303.636887 52.376873 
L 303.636887 52.297269 
L 303.538616 52.147973 
L 303.473103 52.114786 
L 303.473103 52.074898 
L 303.473103 51.915248 
L 303.374832 51.92521 
L 303.342075 51.928532 
L 303.342075 51.848612 
L 303.309318 51.251211 
L 303.243805 51.257706 
L 303.112777 51.230551 
L 303.112777 51.190388 
L 303.047263 51.076296 
L 302.916236 51.008753 
L 302.850722 50.854106 
L 302.817965 50.857314 
L 302.785209 50.860523 
L 302.785209 50.779896 
L 302.686938 50.34519 
L 302.588667 50.273708 
L 302.555911 50.114833 
L 302.490397 50.121089 
L 302.45764 50.124218 
L 302.45764 50.04312 
L 302.359369 49.483474 
L 302.261099 49.451917 
L 302.261099 49.411173 
L 302.195585 48.927452 
L 302.162828 48.930448 
L 302.130071 48.933444 
L 302.130071 48.851646 
L 302.031801 48.409837 
L 301.999044 48.412775 
L 301.999044 48.330673 
L 301.900773 47.887015 
L 301.868016 47.889894 
L 301.868016 47.807487 
L 301.769746 47.361968 
L 301.573205 47.296133 
L 301.573205 47.254737 
L 301.474934 47.263167 
L 301.376664 47.188721 
L 301.278393 46.865072 
L 301.212879 46.870607 
L 301.212879 46.787468 
L 301.114609 46.462653 
L 301.049095 46.384699 
L 300.950824 46.184089 
L 300.852554 46.108558 
L 300.754283 45.865455 
L 300.68877 45.828859 
L 300.68877 45.786943 
L 300.590499 45.374987 
L 300.459472 45.343317 
L 300.459472 45.301238 
L 300.393958 44.758295 
L 300.361201 44.760822 
L 300.230173 44.728674 
L 300.230173 44.6864 
L 300.131903 44.524698 
L 300.066389 44.529703 
L 300.066389 44.444985 
L 300.000875 43.770512 
L 299.968119 43.772925 
L 299.902605 43.777753 
L 299.902605 43.692595 
L 299.804334 43.358621 
L 299.706064 43.323005 
L 299.706064 43.280281 
L 299.673307 43.197147 
L 299.607793 43.201841 
L 299.509523 43.123301 
L 299.509523 43.080491 
L 299.444009 43.085161 
L 299.11644 42.808133 
L 299.050927 42.6838 
L 299.01817 42.686091 
L 298.723358 42.620612 
L 298.657844 42.452764 
L 298.625087 42.45503 
L 298.49406 42.377772 
L 298.49406 42.33459 
L 298.395789 42.341353 
L 298.264762 42.263907 
L 298.166491 41.924194 
L 298.068221 41.844057 
L 298.035464 41.629137 
L 297.96995 41.633481 
L 297.642382 41.568177 
L 297.544111 41.356768 
L 297.44584 41.27592 
L 297.380327 41.01802 
L 297.34757 41.020122 
L 297.249299 41.026431 
L 297.249299 40.938908 
L 297.183786 40.724034 
L 297.151029 40.726101 
L 296.82346 40.658978 
L 296.790703 40.485233 
L 296.72519 40.489315 
L 296.692433 40.491357 
L 296.692433 40.403352 
L 296.659676 40.273272 
L 296.594162 40.277304 
L 296.495892 40.195169 
L 296.430378 40.11093 
L 296.397621 40.112927 
L 296.20108 40.080738 
L 296.20108 40.036544 
L 296.20108 39.992337 
L 296.102809 39.998292 
L 295.939025 39.919691 
L 295.840754 39.792683 
L 295.67697 39.713759 
L 295.611456 39.628857 
L 295.578699 39.6308 
L 295.480429 39.636634 
L 295.480429 39.547733 
L 295.480429 39.503265 
L 295.382158 39.509053 
L 295.087347 39.437338 
L 295.021833 39.307405 
L 294.989076 39.309313 
L 294.661507 39.239049 
L 294.595994 38.929606 
L 294.563237 38.931469 
L 294.464966 38.892243 
L 294.464966 38.847411 
L 294.366696 38.763242 
L 294.170154 38.684465 
L 294.071884 38.510064 
L 293.744315 38.438086 
L 293.678802 38.261229 
L 293.646045 38.263015 
L 293.48226 38.226766 
L 293.48226 38.181571 
L 293.38399 37.960661 
L 293.089178 37.885735 
L 293.056421 37.660521 
L 292.990908 37.663948 
L 292.892637 37.623634 
L 292.892637 37.578165 
L 292.827123 37.308434 
L 292.794366 37.310103 
L 292.204743 37.24886 
L 292.139229 37.115013 
L 292.106472 37.116663 
L 291.942688 37.079129 
L 291.942688 37.03333 
L 291.909931 36.897481 
L 291.844417 36.900727 
L 291.615119 36.820272 
L 291.615119 36.77434 
L 291.516849 36.779167 
L 291.353065 36.695223 
L 291.320308 36.604763 
L 291.254794 36.607941 
L 291.18928 36.565047 
L 291.156523 36.428321 
L 291.09101 36.431455 
L 290.894469 36.3485 
L 290.697927 36.265366 
L 290.534143 36.226819 
L 290.534143 36.180513 
L 290.435872 35.95332 
L 290.370359 35.909927 
L 290.370359 35.863502 
L 290.04279 35.599319 
L 289.813492 35.516336 
L 289.813492 35.469693 
L 289.715222 35.474043 
L 289.682465 35.475493 
L 289.682465 35.38212 
L 289.682465 35.148465 
L 289.584194 35.15269 
L 289.42041 35.066087 
L 289.354896 34.975157 
L 289.322139 34.976544 
L 288.732516 34.907554 
L 288.699759 34.767797 
L 288.634245 34.770523 
L 288.27392 34.691224 
L 288.175649 34.553656 
L 287.880837 34.471104 
L 287.880837 34.423784 
L 287.782567 34.42775 
L 287.651539 34.338274 
L 287.651539 34.29087 
L 287.553269 34.294787 
L 287.356728 34.30263 
L 287.356728 34.207667 
L 287.323971 33.971294 
L 287.258457 33.973823 
L 286.60332 33.903741 
L 286.537806 33.810738 
L 286.505049 33.811984 
L 286.341265 33.770403 
L 286.341265 33.722571 
L 286.308508 33.580209 
L 286.242994 33.582642 
L 286.111967 33.491637 
L 286.111967 33.395707 
L 286.013696 33.399286 
L 285.882669 33.307988 
L 285.882669 33.211859 
L 285.784398 33.215367 
L 285.260289 33.13769 
L 285.260289 33.089454 
L 285.162018 33.092921 
L 284.539638 33.01814 
L 284.441367 32.87622 
L 284.244826 32.785946 
L 284.244826 32.737395 
L 284.146555 32.740732 
L 283.950014 32.650152 
L 283.950014 32.552835 
L 283.851744 32.5561 
L 283.687959 32.464068 
L 283.687959 32.415307 
L 283.589689 32.418519 
L 283.26212 32.331506 
L 283.196607 32.235807 
L 283.16385 32.236855 
L 282.803524 32.15036 
L 282.803524 32.10132 
L 282.705254 32.104414 
L 281.820818 32.083114 
L 281.820818 32.03384 
L 281.788062 31.936262 
L 281.755305 31.937275 
L 281.460493 31.847602 
L 281.460493 31.798182 
L 281.362222 31.801167 
L 281.132924 31.70912 
L 281.132924 31.659588 
L 281.034654 31.662518 
L 280.739842 31.572052 
L 280.739842 31.373333 
L 280.641571 31.376148 
L 280.314003 31.285921 
L 280.314003 31.236086 
L 280.215732 31.238848 
L 279.789893 31.150906 
L 279.691623 31.003558 
L 278.839944 30.926286 
L 278.708917 30.879518 
L 278.086536 30.795297 
L 277.988266 30.696881 
L 277.693454 30.603361 
L 277.62794 30.453078 
L 277.595184 30.453898 
L 277.169344 30.362985 
L 277.169344 30.312169 
L 277.071074 30.314572 
L 276.38318 30.229424 
L 276.38318 30.178387 
L 276.284909 30.180741 
L 276.153882 30.081659 
L 276.153882 30.030525 
L 276.055611 30.032817 
L 275.400474 29.945493 
L 275.400474 29.842777 
L 275.302203 29.844995 
L 274.647066 29.756709 
L 274.647066 29.705125 
L 274.548796 29.70729 
L 273.238521 29.684418 
L 273.238521 29.632476 
L 273.238521 29.58052 
L 273.140251 29.582644 
L 272.583384 29.490449 
L 272.583384 29.438292 
L 272.485113 29.44036 
L 271.666192 29.352867 
L 271.666192 29.300446 
L 271.567921 29.30246 
L 270.323161 29.222609 
L 270.290404 29.064829 
L 270.22489 29.066111 
L 268.914616 29.038718 
L 268.914616 28.985521 
L 268.914616 28.932308 
L 268.816345 28.934182 
L 266.523365 28.870755 
L 266.523365 28.763027 
L 266.425094 28.764845 
L 265.049306 28.681942 
L 264.951036 28.575077 
L 263.542491 28.4908 
L 263.542491 28.436048 
L 263.44422 28.437741 
L 262.29773 28.347401 
L 262.29773 28.292273 
L 262.19946 28.293908 
L 261.183997 28.2 
L 261.183997 28.144525 
L 261.085726 28.146099 
L 258.891017 28.125549 
L 258.891017 28.06942 
L 258.792746 28.070977 
L 257.253174 28.038964 
L 257.253174 27.982348 
L 257.154903 27.983876 
L 256.696307 27.934234 
L 256.696307 27.877427 
L 256.598037 27.878908 
L 256.204954 27.827883 
L 256.204954 27.770901 
L 256.106684 27.772334 
L 254.567111 27.737503 
L 254.567111 27.68002 
L 254.468841 27.68142 
L 253.355107 27.639537 
L 253.355107 27.581667 
L 253.256837 27.583027 
L 250.046665 27.569364 
L 250.046665 27.451575 
L 249.948394 27.452893 
L 249.522555 27.399541 
L 249.522555 27.340439 
L 249.424284 27.341705 
L 248.507092 27.294157 
L 248.507092 27.234706 
L 248.408822 27.235925 
L 247.229575 27.190794 
L 247.229575 27.071003 
L 247.131304 27.072148 
L 246.770979 27.016285 
L 246.770979 26.956195 
L 246.672708 26.957284 
L 245.788273 26.906713 
L 245.788273 26.846273 
L 245.690002 26.84731 
L 245.165893 26.792205 
L 245.165893 26.731525 
L 245.067622 26.732507 
L 243.855618 26.683581 
L 243.855618 26.622439 
L 243.757348 26.623371 
L 241.726422 26.580994 
L 241.660909 26.39583 
L 241.628152 26.396104 
L 240.514418 26.343142 
L 240.514418 26.280767 
L 240.416148 26.281535 
L 237.533544 26.241011 
L 237.500787 26.114336 
L 237.435274 26.114797 
L 235.731917 26.062765 
L 235.731917 25.998621 
L 235.633646 25.999255 
L 235.142294 25.938059 
L 235.142294 25.873657 
L 235.044023 25.874225 
L 234.02856 25.815304 
L 234.02856 25.750452 
L 233.93029 25.750955 
L 232.914827 25.690909 
L 232.914827 25.6256 
L 232.816557 25.626038 
L 229.475357 25.574583 
L 229.475357 25.507929 
L 229.377086 25.508308 
L 226.396212 25.452146 
L 226.396212 25.384234 
L 226.297941 25.384549 
L 224.135989 25.322721 
L 224.135989 25.253842 
L 224.037718 25.254085 
L 221.122358 25.191254 
L 221.122358 25.12106 
L 221.024087 25.121228 
L 213.555523 25.061006 
L 213.555523 24.987368 
L 213.457252 24.987461 
L 124.260324 25.182192 
L 109.38871 25.278806 
L 108.537031 25.06315 
L 97.366942 25.124516 
L 97.203158 24.84 
L 56.781193 24.84 
L 56.781193 24.84 
" clip-path="url(#p7e3c9fa636)" style="fill: none; stroke: #2ca02c; stroke-width: 2; stroke-linecap: square"/>
   </g>
   <g id="line2d_16">
    <path d="M 310.417557 371.88402 
L 310.417557 370.508619 
L 309.45316 370.535188 
L 309.45316 370.424262 
L 309.45316 347.333902 
L 308.488763 347.439672 
L 308.488763 347.330323 
L 308.488763 202.581445 
L 307.524366 202.92 
L 307.524366 188.119339 
L 306.55997 188.457391 
L 306.55997 159.039043 
L 305.595573 159.360863 
L 305.595573 57.138592 
L 304.631176 57.252721 
L 304.631176 43.06583 
L 303.666779 43.133333 
L 303.666779 39.374831 
L 299.809192 39.595894 
L 299.809192 33.044651 
L 298.844795 33.076576 
L 298.844795 31.730625 
L 293.058414 31.896 
L 293.058414 29.107742 
L 273.770478 29.482105 
L 273.770478 27.94837 
L 236.159002 28.593191 
L 229.408224 28.738343 
L 229.408224 26.8 
L 192.761145 27.324507 
L 177.330796 27.64 
L 177.330796 24.84 
L 56.781193 24.84 
L 56.781193 24.84 
" clip-path="url(#p7e3c9fa636)" style="fill: none; stroke: #d62728; stroke-width: 2; stroke-linecap: square"/>
   </g>
   <g id="line2d_17">
    <path d="M 310.417557 372.693797 
L 310.417557 369.551048 
L 309.295272 369.586023 
L 309.295272 369.475013 
L 309.295272 359.006197 
L 308.172987 359.084658 
L 308.172987 358.975097 
L 308.172987 356.413247 
L 307.050702 356.502332 
L 307.050702 356.393875 
L 307.050702 350.548264 
L 305.928418 350.660462 
L 305.928418 350.557842 
L 305.928418 345.905154 
L 304.806133 346.035298 
L 304.806133 345.932477 
L 304.806133 344.630347 
L 303.683848 344.765794 
L 303.683848 344.654025 
L 303.683848 341.455385 
L 302.561563 341.60306 
L 302.561563 341.501927 
L 302.561563 326.268191 
L 301.439278 326.468743 
L 301.439278 326.3664 
L 301.439278 325.603194 
L 300.316994 325.806825 
L 300.316994 325.70133 
L 300.316994 321.223198 
L 299.194709 321.44177 
L 299.194709 321.358759 
L 299.194709 312.507692 
L 298.072424 312.753772 
L 298.072424 312.642571 
L 298.072424 309.793846 
L 296.950139 310.048953 
L 296.950139 309.988387 
L 296.950139 309.376709 
L 295.827854 309.634208 
L 295.827854 309.572609 
L 295.827854 306.613157 
L 294.70557 306.879735 
L 294.70557 306.812727 
L 294.70557 301.242043 
L 293.583285 301.524663 
L 293.583285 301.446755 
L 293.583285 300.817709 
L 292.461 301.10281 
L 292.461 301.023661 
L 292.461 299.405576 
L 291.338715 299.695814 
L 291.338715 299.613333 
L 291.338715 296.164641 
L 290.216431 296.464779 
L 290.216431 296.374884 
L 290.216431 293.485872 
L 289.094146 293.794305 
L 289.094146 293.697931 
L 289.094146 291.621625 
L 287.971861 291.936226 
L 287.971861 291.835041 
L 287.971861 290.706029 
L 286.849576 291.024431 
L 286.849576 290.920576 
L 286.849576 284.438969 
L 285.727291 284.773935 
L 285.727291 280.904516 
L 284.605007 281.249152 
L 284.605007 280.464423 
L 283.482722 280.811739 
L 283.482722 272.373235 
L 282.360437 272.739408 
L 282.360437 268.206667 
L 281.238152 268.582813 
L 281.238152 267.561997 
L 280.115867 267.94125 
L 280.115867 262.357241 
L 278.993583 262.747895 
L 278.993583 261.409717 
L 277.871298 261.804 
L 277.871298 257.395017 
L 276.749013 257.798059 
L 276.749013 257.59 
L 275.626728 257.994783 
L 275.626728 249.766394 
L 274.504443 250.185251 
L 274.504443 246.773461 
L 273.382159 247.198621 
L 273.382159 246.444624 
L 272.259874 246.872432 
L 272.259874 242.43521 
L 271.137589 242.8704 
L 271.137589 240.12 
L 268.893019 241.002295 
L 268.893019 240.721725 
L 267.770735 241.165926 
L 267.770735 240.601983 
L 266.64845 241.048696 
L 266.64845 240.195 
L 265.526165 240.644593 
L 265.526165 237.124368 
L 264.40388 237.579914 
L 264.40388 231.299193 
L 263.281595 231.763146 
L 263.281595 230.773032 
L 262.159311 231.24 
L 262.159311 229.899954 
L 261.037026 230.031724 
L 261.037026 226.202264 
L 259.914741 226.678298 
L 259.914741 225.237136 
L 258.792456 225.716555 
L 258.792456 224.986154 
L 257.670171 225.468434 
L 257.670171 221.325149 
L 256.547887 221.812705 
L 256.547887 216.204524 
L 254.303317 217.193488 
L 254.303317 215.94 
L 253.181032 216.438956 
L 253.181032 215.166316 
L 252.058747 215.668496 
L 252.058747 214.37617 
L 250.936463 214.8816 
L 250.936463 209.963077 
L 249.814178 210.473058 
L 249.814178 207.186067 
L 248.691893 207.699718 
L 248.691893 206.251364 
L 247.569608 206.768205 
L 247.569608 204.798501 
L 246.447324 205.318613 
L 246.447324 204.81913 
L 245.325039 205.342326 
L 245.325039 204.334737 
L 243.080469 205.390588 
L 243.080469 201.76973 
L 241.958184 202.302651 
L 241.958184 198.526154 
L 240.8359 199.062222 
L 240.8359 190.997419 
L 239.713615 191.535146 
L 239.713615 189.710588 
L 238.59133 190.251148 
L 238.59133 185.203636 
L 236.34676 186.290847 
L 236.34676 178.177102 
L 235.224476 177.3 
L 235.224476 172.163077 
L 234.102191 171.948487 
L 234.102191 171.186667 
L 232.979906 170.962388 
L 232.979906 170.188315 
L 231.857621 170.734737 
L 231.857621 166.771034 
L 230.735336 167.316923 
L 230.735336 150.735436 
L 229.613052 151.26 
L 229.613052 147.423051 
L 228.490767 146.963077 
L 228.490767 138.797522 
L 227.368482 139.304 
L 227.368482 136.083243 
L 226.246197 135.490909 
L 226.246197 134.385205 
L 225.123912 134.887706 
L 225.123912 123.216923 
L 224.001628 123.692174 
L 224.001628 106.675052 
L 222.879343 107.099067 
L 222.879343 99.90383 
L 221.757058 100.305241 
L 221.757058 97.307027 
L 220.634773 97.70087 
L 220.634773 91.48 
L 218.390204 92.228764 
L 218.390204 88.985455 
L 217.267919 89.352 
L 217.267919 87.695172 
L 213.901064 88.797895 
L 213.901064 85.379645 
L 212.77878 85.74 
L 212.77878 83.992096 
L 209.411925 85.074146 
L 209.411925 83.279264 
L 207.167356 84.005217 
L 207.167356 80.311698 
L 204.922786 81.018344 
L 204.922786 79.116923 
L 197.066793 81.666846 
L 194.822223 82.44 
L 194.822223 80.418082 
L 191.455369 81.584056 
L 191.455369 79.499155 
L 188.088514 80.678849 
L 188.088514 78.526957 
L 182.47709 80.545263 
L 182.47709 76.009466 
L 181.354805 76.403077 
L 181.354805 71.69625 
L 177.987951 72.8208 
L 177.987951 70.362581 
L 176.865666 70.732683 
L 176.865666 68.217049 
L 170.131957 70.46069 
L 170.131957 67.789565 
L 167.887388 68.549735 
L 167.887388 65.79 
L 165.642818 66.534545 
L 165.642818 60.773333 
L 164.520533 61.109159 
L 164.520533 55.08 
L 163.398249 55.370769 
L 163.398249 52.241942 
L 162.275964 52.510588 
L 162.275964 46.008 
L 154.41997 47.60129 
L 153.297686 47.848696 
L 153.297686 44.224615 
L 147.686262 45.351628 
L 147.686262 41.442353 
L 139.830268 42.932308 
L 133.096559 44.44 
L 128.60742 45.592941 
L 128.60742 40.637015 
L 127.485135 40.876364 
L 127.485135 35.695385 
L 120.751426 36.799322 
L 115.140003 37.906667 
L 109.528579 39.24 
L 105.039439 40.52 
L 100.5503 42.049756 
L 97.183446 43.408421 
L 93.816591 45 
L 92.694307 45.592941 
L 92.694307 35.530909 
L 89.327452 36.6 
L 85.960598 37.906667 
L 83.716028 38.952 
L 81.471459 40.17913 
L 79.226889 41.64 
L 76.982319 43.408421 
L 74.73775 45.592941 
L 73.615465 46.89 
L 72.49318 48.36 
L 71.370896 50.04 
L 70.248611 51.978462 
L 69.126326 54.24 
L 68.004041 56.912727 
L 66.881756 60.12 
L 65.759472 64.04 
L 64.637187 68.94 
L 63.514902 75.24 
L 62.392617 83.64 
L 61.270332 95.4 
L 60.148048 113.04 
L 59.025763 142.44 
L 57.903478 201.24 
L 57.903478 24.84 
L 56.781193 24.84 
L 56.781193 24.84 
" clip-path="url(#p7e3c9fa636)" style="fill: none; stroke: #9467bd; stroke-width: 2; stroke-linecap: square"/>
   </g>
   <g id="line2d_18">
    <path d="M 310.417557 365.099404 
L 310.417557 358.295081 
L 309.97491 358.295521 
L 309.97491 358.185493 
L 309.97491 333.102017 
L 309.532264 333.170066 
L 309.532264 333.061819 
L 309.532264 298.671439 
L 309.089618 298.778824 
L 309.089618 298.685936 
L 309.089618 294.058953 
L 308.204325 294.282928 
L 308.204325 294.178776 
L 308.204325 290.475842 
L 307.761679 290.591436 
L 307.761679 290.477647 
L 307.761679 278.709436 
L 307.319032 278.835052 
L 307.319032 278.737177 
L 307.319032 274.974293 
L 306.876386 275.102963 
L 306.876386 274.997364 
L 306.876386 269.951183 
L 306.43374 270.083676 
L 306.43374 270.025506 
L 306.43374 268.310769 
L 305.991093 268.444618 
L 305.991093 268.384554 
L 305.991093 242.52 
L 305.548447 242.668182 
L 305.548447 242.57624 
L 305.548447 242.299659 
L 305.105801 242.448197 
L 305.105801 242.355789 
L 305.105801 238.84561 
L 304.663154 238.995789 
L 304.663154 238.898427 
L 304.663154 230.530544 
L 304.220508 230.683815 
L 304.220508 230.574228 
L 304.220508 225.35027 
L 303.777861 225.505224 
L 303.777861 225.387564 
L 303.777861 225.033488 
L 303.335215 225.188798 
L 303.335215 213.882 
L 302.892569 214.039666 
L 302.892569 210.413402 
L 302.449922 210.571741 
L 302.449922 206.032638 
L 302.007276 206.191579 
L 302.007276 200.279564 
L 301.56463 200.43891 
L 301.56463 172.489211 
L 301.121983 172.644632 
L 301.121983 170.46383 
L 300.679337 170.618914 
L 300.679337 168.165 
L 300.236691 168.319612 
L 300.236691 165.574426 
L 299.794044 165.263684 
L 299.794044 163.146977 
L 299.351398 163.30031 
L 299.351398 158.688245 
L 298.908751 158.84 
L 298.908751 150.067358 
L 298.466105 150.215207 
L 298.466105 147.772697 
L 298.023459 147.91957 
L 298.023459 122.632042 
L 297.580812 122.761912 
L 297.580812 121.7424 
L 297.138166 121.871776 
L 297.138166 100.804162 
L 296.252873 101.024348 
L 296.252873 100.622874 
L 295.810227 100.733023 
L 295.810227 92.014813 
L 295.367581 92.115676 
L 295.367581 87.763171 
L 294.924934 87.859237 
L 294.924934 84.728889 
L 294.482288 84.821453 
L 294.482288 79.287874 
L 294.039642 78.902559 
L 294.039642 77.002798 
L 293.154349 77.169187 
L 293.154349 73.776774 
L 292.711702 73.855832 
L 292.711702 63.187826 
L 292.269056 63.25206 
L 292.269056 62.724564 
L 291.82641 62.788235 
L 291.82641 57.952628 
L 291.383763 58.009231 
L 291.383763 57.461918 
L 290.498471 57.574021 
L 290.498471 55.359031 
L 289.613178 55.465 
L 289.613178 50.927324 
L 289.170532 50.973333 
L 289.170532 48.652433 
L 288.727885 48.694804 
L 288.727885 48.108449 
L 288.285239 48.15 
L 288.285239 46.969032 
L 287.399946 47.048633 
L 287.399946 45.855162 
L 286.9573 45.893165 
L 286.9573 44.083636 
L 286.514653 44.118689 
L 286.514653 43.510073 
L 283.416129 43.751645 
L 283.416129 43.133333 
L 282.973483 43.167273 
L 282.973483 41.921564 
L 282.530836 41.953433 
L 282.530836 40.69618 
L 282.08819 40.725929 
L 282.08819 38.818868 
L 281.202897 38.871818 
L 281.202897 38.228994 
L 280.760251 38.254449 
L 280.760251 36.959084 
L 278.989665 37.052308 
L 278.989665 35.737297 
L 275.891141 35.886575 
L 275.891141 35.216471 
L 274.120555 35.298498 
L 274.120555 34.620594 
L 273.235263 34.659483 
L 273.235263 33.976255 
L 267.48086 34.219141 
L 267.48086 33.51541 
L 256.414701 33.983844 
L 256.414701 33.24 
L 251.988237 33.425841 
L 251.545591 32.68 
L 232.069151 33.529655 
L 232.069151 32.68 
L 229.413273 32.797895 
L 229.413273 31.931457 
L 213.478004 32.636685 
L 213.478004 31.680997 
L 212.592712 31.719109 
L 212.592712 30.752849 
L 208.608894 30.90533 
L 208.608894 29.908966 
L 204.625077 30.04354 
L 204.625077 29.015148 
L 182.050113 29.757073 
L 174.525125 30.066667 
L 174.525125 28.774572 
L 156.376624 29.482105 
L 153.720746 29.607568 
L 153.720746 28.03276 
L 149.294282 28.184076 
L 149.294282 26.52 
L 128.489903 27.004417 
L 119.19433 27.324507 
L 118.751683 24.84 
L 56.781193 24.84 
L 56.781193 24.84 
" clip-path="url(#p7e3c9fa636)" style="fill: none; stroke: #8c564b; stroke-width: 2; stroke-linecap: square"/>
   </g>
   <g id="line2d_19">
    <path d="M 310.417557 377.486799 
L 310.417557 377.208025 
L 274.183791 377.269671 
L 274.183791 377.158581 
L 274.183791 376.602353 
L 237.950024 376.77487 
L 237.950024 376.663796 
L 237.950024 376.517863 
L 165.482492 376.923412 
L 165.482492 376.854837 
L 165.482492 376.441359 
L 129.248726 376.84 
L 129.248726 376.729548 
L 129.248726 376.145085 
L 93.014959 376.890955 
L 93.014959 376.783689 
L 93.014959 372.872432 
L 56.781193 377.64 
L 56.781193 377.64 
L 56.781193 24.84 
L 56.781193 24.84 
" clip-path="url(#p7e3c9fa636)" style="fill: none; stroke: #e377c2; stroke-width: 2; stroke-linecap: square"/>
   </g>
   <g id="line2d_20">
    <path d="M 310.417557 376.436278 
L 310.417557 367.528484 
L 305.805987 367.707153 
L 305.805987 367.597196 
L 305.805987 365.458926 
L 301.194416 365.676852 
L 301.194416 365.568728 
L 301.194416 365.240531 
L 296.582846 365.46641 
L 296.582846 365.360482 
L 296.582846 363.32986 
L 291.971276 363.594098 
L 291.971276 363.483588 
L 291.971276 362.670948 
L 287.359706 362.95224 
L 287.359706 362.841342 
L 287.359706 361.500933 
L 282.748135 361.809231 
L 282.748135 361.707097 
L 282.748135 360.421673 
L 278.136565 360.756251 
L 278.136565 360.654644 
L 278.136565 360.620503 
L 273.524995 360.95831 
L 273.524995 360.857004 
L 273.524995 359.886681 
L 264.301854 360.532241 
L 264.301854 360.495292 
L 264.301854 360.212997 
L 259.690284 360.581538 
L 259.690284 360.487293 
L 259.690284 359.735502 
L 250.467144 360.410233 
L 250.467144 359.278662 
L 245.855573 359.693598 
L 245.855573 359.60409 
L 245.855573 359.19 
L 241.244003 359.617011 
L 241.244003 359.524467 
L 241.244003 357.246936 
L 236.632433 357.727988 
L 236.632433 357.641163 
L 236.632433 356.918313 
L 232.020863 357.419186 
L 232.020863 357.327273 
L 232.020863 356.659718 
L 227.409292 357.179812 
L 227.409292 357.08315 
L 227.409292 356.820861 
L 222.797722 357.351182 
L 222.797722 357.253483 
L 222.797722 356.954658 
L 218.186152 357.496444 
L 218.186152 357.397377 
L 218.186152 355.310886 
L 213.574582 355.909565 
L 213.574582 355.830545 
L 213.574582 355.670769 
L 208.963011 356.277798 
L 208.963011 356.199116 
L 208.963011 354.072389 
L 204.351441 354.740203 
L 204.351441 354.646925 
L 204.351441 353.670573 
L 199.739871 354.370213 
L 199.739871 354.270769 
L 199.739871 353.550132 
L 195.128301 354.275762 
L 195.128301 354.172151 
L 195.128301 353.694299 
L 190.51673 354.44 
L 190.51673 354.334305 
L 190.51673 349.837826 
L 185.90516 350.723379 
L 185.90516 350.649836 
L 185.90516 349.006957 
L 181.29359 349.949302 
L 181.29359 349.868571 
L 181.29359 349.623529 
L 176.68202 350.581593 
L 176.68202 350.501538 
L 176.68202 350.176527 
L 172.070449 351.153514 
L 172.070449 351.073735 
L 172.070449 346.027097 
L 167.458879 347.182446 
L 167.458879 347.072491 
L 167.458879 346.850182 
L 162.847309 348.025401 
L 162.847309 347.916923 
L 162.847309 341.252556 
L 158.235739 342.677838 
L 158.235739 339.592941 
L 153.624168 341.143448 
L 153.624168 339.646154 
L 149.012598 341.268866 
L 149.012598 341.080415 
L 144.401028 342.7275 
L 144.401028 337.014545 
L 139.789458 338.918049 
L 139.789458 337.700377 
L 135.177887 339.680506 
L 135.177887 336.277241 
L 130.566317 338.44 
L 130.566317 334.218462 
L 125.954747 336.616744 
L 125.954747 313.103415 
L 121.343177 316.662222 
L 121.343177 310.894054 
L 116.731606 314.812603 
L 116.731606 309.186269 
L 112.120036 313.494545 
L 112.120036 309.356129 
L 107.508466 314.020328 
L 107.508466 303.009231 
L 102.896896 308.463529 
L 102.896896 300.944348 
L 98.285325 307.08 
L 98.285325 302.04 
L 93.673755 308.800976 
L 93.673755 299.24 
L 89.062185 307.08 
L 84.450615 315.381176 
L 84.450615 311.49 
L 79.839044 320.736774 
L 79.839044 297.458182 
L 75.227474 310.44 
L 75.227474 303.366316 
L 70.615904 318.84 
L 70.615904 315.381176 
L 66.004334 333.54 
L 66.004334 327.24 
L 61.392763 350.501538 
L 61.392763 307.08 
L 56.781193 377.64 
L 56.781193 377.64 
L 56.781193 24.84 
L 56.781193 24.84 
" clip-path="url(#p7e3c9fa636)" style="fill: none; stroke: #7f7f7f; stroke-width: 2; stroke-linecap: square"/>
   </g>
   <g id="line2d_21">
    <path d="M 310.417557 377.530571 
L 310.417557 347.226207 
L 259.690284 352.882105 
L 259.690284 176.04 
L 208.963011 201.24 
L 208.963011 165.96 
L 158.235739 201.24 
L 107.508466 260.04 
L 107.508466 24.84 
L 56.781193 24.84 
L 56.781193 24.84 
" clip-path="url(#p7e3c9fa636)" style="fill: none; stroke: #bcbd22; stroke-width: 2; stroke-linecap: square"/>
   </g>
   <g id="line2d_22">
    <path d="M 310.417557 351.749032 
L 310.417557 350.610507 
L 310.203156 350.631606 
L 310.203156 350.522716 
L 310.203156 339.013694 
L 309.988755 339.042798 
L 309.988755 338.931639 
L 309.988755 332.668948 
L 309.774354 332.702176 
L 309.774354 332.59033 
L 309.774354 330.413227 
L 309.559953 330.447897 
L 309.559953 330.340569 
L 309.559953 316.099654 
L 309.345552 316.142752 
L 309.345552 316.033359 
L 309.345552 302.309494 
L 309.131151 302.346147 
L 309.131151 302.236768 
L 309.131151 291.916301 
L 308.91675 291.971447 
L 308.91675 291.865181 
L 308.91675 279.90318 
L 308.702349 279.96328 
L 308.702349 279.848068 
L 308.702349 269.799209 
L 308.487948 269.862951 
L 308.487948 269.750654 
L 308.487948 257.341656 
L 308.273547 257.409204 
L 308.273547 257.304321 
L 308.273547 242.796598 
L 308.059146 242.86764 
L 308.059146 242.779726 
L 308.059146 226.236997 
L 307.844745 226.310769 
L 307.844745 226.199824 
L 307.844745 214.347984 
L 307.630344 214.422918 
L 307.630344 214.358354 
L 307.630344 212.198717 
L 307.415943 212.273841 
L 307.415943 212.207509 
L 307.415943 205.366316 
L 307.201542 205.441755 
L 307.201542 205.369766 
L 307.201542 200.329157 
L 306.987141 200.404701 
L 306.987141 200.328372 
L 306.987141 200.098991 
L 306.77274 200.174599 
L 306.77274 200.098006 
L 306.77274 197.847692 
L 306.558339 197.923341 
L 306.558339 197.844724 
L 306.558339 191.24 
L 306.343938 191.315499 
L 306.343938 191.230921 
L 306.343938 190.891842 
L 305.915136 190.958033 
L 305.915136 190.446575 
L 305.700735 190.522229 
L 305.700735 190.436709 
L 305.700735 188.01 
L 305.486334 188.085577 
L 305.486334 187.997739 
L 305.486334 187.645571 
L 305.271933 187.721189 
L 305.271933 187.632937 
L 305.271933 185.309238 
L 305.057532 185.384753 
L 305.057532 185.294237 
L 305.057532 184.10973 
L 304.843131 184.185213 
L 304.843131 184.093485 
L 304.843131 182.707049 
L 304.62873 182.782475 
L 304.62873 182.689331 
L 304.62873 182.502775 
L 304.414329 182.578248 
L 304.414329 182.484828 
L 304.414329 180.024093 
L 304.199928 180.099389 
L 304.199928 180.003495 
L 304.199928 179.136246 
L 303.985527 179.211512 
L 303.985527 179.114671 
L 303.985527 177.355214 
L 303.771126 177.430345 
L 303.771126 177.331671 
L 303.771126 176.439208 
L 303.342324 176.589455 
L 303.342324 176.489777 
L 303.342324 175.487534 
L 303.127923 175.562632 
L 303.127923 175.461845 
L 303.127923 174.753514 
L 302.48472 174.877312 
L 302.48472 173.957985 
L 302.270319 174.033145 
L 302.270319 173.930469 
L 302.270319 173.415531 
L 301.841517 173.462582 
L 301.841517 171.9 
L 301.627116 171.975069 
L 301.627116 171.870031 
L 301.627116 171.659632 
L 301.412716 171.734731 
L 301.412716 171.629355 
L 301.412716 171.523871 
L 301.198315 171.599016 
L 301.198315 171.493409 
L 301.198315 171.281868 
L 300.983914 171.357043 
L 300.983914 171.251094 
L 300.983914 171.145036 
L 300.555112 171.295556 
L 300.555112 171.189357 
L 300.555112 170.335814 
L 299.911909 170.4545 
L 299.911909 169.700707 
L 299.268706 169.926934 
L 299.268706 169.81875 
L 299.268706 168.730681 
L 299.054305 168.806056 
L 299.054305 168.696604 
L 299.054305 168.037476 
L 298.839904 168.112804 
L 298.839904 168.002526 
L 298.839904 165.77234 
L 298.411102 165.809632 
L 298.411102 165.470523 
L 298.196701 165.545606 
L 298.196701 165.432308 
L 298.196701 165.318888 
L 297.9823 165.394011 
L 297.9823 165.280449 
L 297.9823 165.166767 
L 297.767899 165.241928 
L 297.767899 165.128103 
L 297.767899 164.900086 
L 297.553498 164.975266 
L 297.553498 164.861053 
L 297.553498 163.942913 
L 297.339097 164.017982 
L 297.339097 163.902635 
L 297.339097 163.207931 
L 297.124696 163.282927 
L 297.124696 163.166681 
L 297.124696 162.114768 
L 296.695894 162.146987 
L 296.695894 162.029295 
L 296.481493 162.104262 
L 296.481493 161.632114 
L 296.267092 161.707068 
L 296.267092 161.113846 
L 296.052691 161.188763 
L 296.052691 158.538831 
L 295.83829 158.613274 
L 295.83829 158.246804 
L 295.623889 158.32125 
L 295.623889 157.337758 
L 295.409488 157.41207 
L 295.409488 156.792756 
L 295.195087 156.867012 
L 295.195087 155.993898 
L 294.337483 156.290963 
L 294.337483 155.410097 
L 294.123082 155.484369 
L 294.123082 155.104615 
L 293.69428 155.253234 
L 293.69428 154.872 
L 293.479879 154.946346 
L 293.479879 154.818947 
L 293.265478 154.893349 
L 293.265478 154.125698 
L 293.051077 154.2 
L 293.051077 153.685161 
L 292.836676 153.759424 
L 292.836676 153.24208 
L 292.622275 153.316301 
L 292.622275 153.186559 
L 292.407874 153.260833 
L 292.407874 153.000834 
L 291.764671 153.223981 
L 291.764671 152.308531 
L 291.121468 152.531769 
L 291.121468 152.40028 
L 290.907067 152.474833 
L 290.907067 151.682463 
L 290.692666 151.756901 
L 290.692666 150.020367 
L 290.478265 150.094438 
L 290.478265 149.689793 
L 290.263864 149.763843 
L 290.263864 148.95 
L 289.620661 149.172021 
L 289.620661 149.035704 
L 289.40626 149.109851 
L 289.40626 148.973333 
L 289.191859 149.047531 
L 289.191859 148.910813 
L 288.763057 149.059401 
L 288.763057 148.510588 
L 288.548656 148.584865 
L 288.548656 148.447212 
L 288.334256 148.521539 
L 288.334256 148.245659 
L 288.119855 148.32 
L 288.119855 148.181772 
L 287.476652 148.405217 
L 287.476652 147.989183 
L 287.262251 148.063729 
L 287.262251 147.924676 
L 286.619048 148.148738 
L 286.619048 148.009399 
L 286.404647 148.084228 
L 286.404647 147.665076 
L 286.190246 147.739878 
L 286.190246 147.459512 
L 285.975845 147.534326 
L 285.975845 147.393846 
L 285.761444 147.468711 
L 285.761444 146.904911 
L 285.547043 146.979706 
L 285.547043 146.554917 
L 285.332642 146.629681 
L 285.332642 146.06069 
L 285.118241 146.135379 
L 285.118241 144.844461 
L 284.90384 144.918859 
L 284.90384 144.774491 
L 284.689439 144.848939 
L 284.689439 144.124184 
L 284.475038 144.198505 
L 284.475038 144.052968 
L 284.046236 144.201798 
L 284.046236 143.91 
L 283.403033 144.133676 
L 283.403033 143.840878 
L 283.188632 143.915533 
L 283.188632 143.62191 
L 282.974231 143.696568 
L 282.974231 143.25461 
L 282.75983 143.329225 
L 282.75983 143.033565 
L 282.545429 143.108182 
L 282.545429 142.960025 
L 282.116627 143.10945 
L 282.116627 142.216 
L 281.902226 142.290572 
L 281.902226 142.140954 
L 281.473424 142.290286 
L 281.473424 141.538851 
L 281.044622 141.688082 
L 281.044622 141.385967 
L 280.830221 141.460628 
L 280.830221 141.309231 
L 280.187018 141.533642 
L 280.187018 141.229968 
L 279.972617 141.304865 
L 279.972617 141.000309 
L 279.758216 141.075203 
L 279.758216 140.922581 
L 279.543815 140.997521 
L 279.543815 140.844651 
L 279.329414 140.919638 
L 279.329414 140.76652 
L 278.900612 140.916684 
L 278.900612 140.763266 
L 278.686211 140.838444 
L 278.686211 140.376842 
L 278.257409 140.527183 
L 278.257409 140.063468 
L 278.043008 140.13863 
L 278.043008 139.983603 
L 277.828607 140.058811 
L 277.828607 138.967559 
L 277.185404 139.192663 
L 277.185404 139.035789 
L 276.756602 139.186245 
L 276.756602 139.029057 
L 276.542201 139.10438 
L 276.542201 138.156556 
L 276.113399 138.306844 
L 276.113399 137.989004 
L 275.684597 138.139468 
L 275.684597 137.98012 
L 275.470196 138.055446 
L 275.470196 137.895829 
L 275.255796 137.9712 
L 275.255796 137.490902 
L 275.041395 137.566203 
L 275.041395 137.405619 
L 274.826994 137.480964 
L 274.826994 137.159035 
L 274.398192 137.309799 
L 274.398192 137.148395 
L 273.96939 137.299449 
L 273.96939 136.813585 
L 273.754989 136.88909 
L 273.754989 136.72664 
L 273.111786 136.95359 
L 273.111786 136.790744 
L 272.682984 136.942439 
L 272.682984 136.45222 
L 272.468583 136.528043 
L 272.468583 136.2 
L 272.254182 136.275807 
L 272.254182 136.11139 
L 272.039781 136.187239 
L 272.039781 136.022538 
L 271.610979 136.174426 
L 271.610979 135.844104 
L 270.753375 136.148642 
L 270.753375 135.982896 
L 270.538974 136.059231 
L 270.538974 135.56044 
L 270.110172 135.713053 
L 270.110172 134.371809 
L 269.895771 134.447767 
L 269.68137 134.355 
L 269.68137 134.016634 
L 269.252568 134.168691 
L 269.252568 133.488603 
L 269.038167 133.564528 
L 269.038167 133.222925 
L 268.180563 133.527158 
L 268.180563 133.35573 
L 267.751761 133.508354 
L 267.751761 133.336552 
L 267.53736 133.412958 
L 267.53736 133.068491 
L 267.322959 133.144869 
L 267.322959 132.972203 
L 267.108558 133.048622 
L 267.108558 132.875644 
L 266.894157 132.952102 
L 266.894157 132.605273 
L 266.679756 132.681702 
L 266.679756 132.50785 
L 265.607751 132.891282 
L 265.39335 132.79378 
L 264.964548 132.948 
L 264.964548 132.59794 
L 264.321345 132.829677 
L 264.321345 132.65406 
L 264.106944 132.731457 
L 264.106944 132.379324 
L 263.892543 132.456691 
L 263.892543 132.280173 
L 263.678142 132.357579 
L 263.678142 131.114294 
L 263.034939 131.34566 
L 263.034939 131.166797 
L 262.820538 131.24407 
L 262.820538 131.064873 
L 262.606137 131.142183 
L 262.391736 131.04 
L 261.962935 131.195036 
L 261.962935 131.015018 
L 261.748534 131.092632 
L 261.748534 130.550769 
L 261.319732 130.705884 
L 261.319732 130.343012 
L 261.105331 130.420588 
L 261.105331 130.238675 
L 259.604524 130.784379 
L 259.604524 130.601658 
L 258.961321 130.837033 
L 258.961321 130.653808 
L 258.74692 130.732422 
L 258.74692 130.365 
L 258.318118 130.522265 
L 258.318118 130.153433 
L 257.460514 130.468743 
L 257.460514 130.283596 
L 256.817311 130.521081 
L 256.817311 130.335417 
L 256.388509 130.494176 
L 256.388509 130.308072 
L 255.745306 130.546868 
L 255.745306 130.360242 
L 255.316504 130.519879 
L 255.316504 130.332808 
L 255.102103 130.412727 
L 255.102103 129.283836 
L 254.887702 129.363382 
L 254.887702 128.984622 
L 254.673301 129.064122 
L 254.673301 128.302787 
L 254.4589 128.382069 
L 254.4589 127.999478 
L 253.815697 128.237538 
L 253.815697 128.045543 
L 253.601296 128.125054 
L 253.386895 128.012222 
L 253.386895 127.239381 
L 253.172494 127.318699 
L 253.172494 126.930303 
L 252.743692 127.088951 
L 252.743692 126.698988 
L 252.31489 126.857771 
L 252.31489 126.662153 
L 251.457286 126.980845 
L 251.457286 126.784558 
L 251.242885 126.864451 
L 251.242885 126.667765 
L 249.098875 127.472727 
L 249.098875 127.07658 
L 248.670074 127.238731 
L 248.670074 127.04 
L 248.026871 127.283914 
L 248.026871 126.88494 
L 247.598069 127.047821 
L 247.598069 126.847668 
L 246.954866 127.092682 
L 246.954866 126.489438 
L 246.097262 126.816812 
L 246.097262 126.614698 
L 245.882861 126.696774 
L 245.882861 126.494237 
L 245.66846 126.576349 
L 245.66846 126.373387 
L 244.810856 126.702774 
L 244.810856 126.499091 
L 244.167653 126.747242 
L 244.167653 126.542932 
L 243.310049 126.875294 
L 243.310049 126.464877 
L 243.095648 126.548108 
L 243.095648 126.136144 
L 242.452445 126.386053 
L 242.452445 126.179259 
L 242.238044 126.262735 
L 242.238044 126.055499 
L 241.166039 126.474437 
L 241.166039 126.05791 
L 240.737237 126.226047 
L 240.522836 126.101231 
L 240.522836 125.89179 
L 240.094034 126.06035 
L 240.094034 125.64 
L 239.450831 125.893266 
L 239.450831 125.259144 
L 239.022029 125.428057 
L 239.022029 125.215758 
L 238.378826 125.469873 
L 238.378826 125.256892 
L 237.735623 125.511973 
L 237.735623 125.298305 
L 237.521222 125.383511 
L 237.521222 124.74 
L 236.878019 124.995499 
L 236.878019 124.779932 
L 236.234816 125.036407 
L 236.234816 124.820137 
L 234.73401 125.422946 
L 234.73401 125.205517 
L 234.305208 125.37886 
L 234.305208 125.16083 
L 233.876406 125.334545 
L 233.876406 124.896895 
L 233.447604 125.070756 
L 233.447604 124.85113 
L 233.233203 124.938172 
L 233.233203 124.497541 
L 233.018802 124.584503 
L 233.018802 123.920315 
L 232.804401 124.007075 
L 232.804401 123.339034 
L 232.59 123.425589 
L 232.59 122.753656 
L 231.732396 123.099947 
L 231.732396 122.422979 
L 231.517995 122.509565 
L 231.517995 122.282984 
L 230.874792 122.543295 
L 230.874792 122.315936 
L 230.660391 122.40289 
L 230.660391 122.175 
L 230.44599 122.261984 
L 230.44599 121.34583 
L 230.017188 121.519245 
L 230.017188 120.827027 
L 228.945183 121.261357 
L 228.945183 121.02913 
L 228.730782 121.116337 
L 228.730782 120.883557 
L 228.516381 120.97079 
L 228.516381 120.503694 
L 228.30198 120.59082 
L 228.30198 120.121752 
L 227.444376 120.470769 
L 227.444376 119.762314 
L 226.801173 120.02453 
L 226.801173 119.787097 
L 226.586772 119.874686 
L 226.586772 119.398226 
L 225.943569 119.661131 
L 225.943569 119.421818 
L 224.657163 119.951194 
L 224.657163 119.710588 
L 223.585158 120.155572 
L 223.585158 119.913803 
L 223.370757 120.003158 
L 223.370757 119.274684 
L 221.65555 119.992137 
L 221.65555 119.501846 
L 221.441149 119.592 
L 221.441149 119.346006 
L 221.012347 119.526533 
L 221.012347 119.032536 
L 220.797946 119.122759 
L 220.797946 118.874899 
L 220.583545 118.965144 
L 220.583545 118.467692 
L 220.154743 118.648092 
L 220.154743 118.398341 
L 219.51154 118.669787 
L 219.51154 118.41909 
L 218.868337 118.69165 
L 218.868337 118.44 
L 218.225134 118.713684 
L 218.225134 118.461073 
L 217.581931 118.73589 
L 217.153129 118.411709 
L 217.153129 117.901417 
L 216.724327 118.08497 
L 216.724327 116.798771 
L 216.295525 116.98141 
L 216.295525 116.722306 
L 215.437921 117.089102 
L 215.437921 116.04481 
L 215.22352 116.136289 
L 215.22352 115.873735 
L 214.580317 116.148761 
L 214.580317 114.825425 
L 214.365916 114.916596 
L 214.365916 114.650142 
L 213.937114 114.832683 
L 213.937114 114.565331 
L 213.07951 114.931931 
L 213.07951 114.663313 
L 212.650708 114.847377 
L 212.650708 114.307762 
L 209.005892 115.897053 
L 209.005892 115.623264 
L 207.933887 116.100568 
L 207.933887 115.825263 
L 207.505085 116.017215 
L 207.505085 115.464101 
L 206.647481 115.848917 
L 206.647481 115.570712 
L 206.43308 115.667234 
L 206.43308 115.388243 
L 205.789877 115.678462 
L 205.789877 114.836141 
L 205.575476 114.932704 
L 205.575476 114.367742 
L 205.361075 114.464112 
L 205.361075 114.180517 
L 205.146674 114.276893 
L 205.146674 113.707459 
L 204.717872 113.900022 
L 204.717872 113.61397 
L 204.28907 113.806957 
L 204.28907 113.519869 
L 204.074669 113.616471 
L 204.074669 112.461007 
L 203.860268 112.556977 
L 203.860268 112.266316 
L 203.431466 112.458462 
L 203.431466 112.166733 
L 202.788263 112.455894 
L 202.788263 111.869204 
L 202.573862 111.965581 
L 202.573862 111.671042 
L 202.359461 111.767414 
L 202.359461 111.472 
L 201.930659 111.664944 
L 201.930659 111.07125 
L 201.716258 111.167598 
L 201.716258 110.86953 
L 201.287456 111.062422 
L 201.287456 110.763232 
L 200.644253 111.053514 
L 200.644253 110.752965 
L 200.429852 110.849932 
L 200.429852 110.548475 
L 199.786649 110.84 
L 199.786649 110.537162 
L 199.572248 110.634545 
L 199.572248 110.026333 
L 198.071441 110.710953 
L 198.071441 110.404138 
L 197.85704 110.502601 
L 197.85704 109.577182 
L 197.642639 109.675145 
L 197.642639 108.742552 
L 197.428238 108.84 
L 197.428238 108.527442 
L 197.213837 108.624866 
L 197.213837 107.682056 
L 196.999436 107.778947 
L 196.999436 107.146213 
L 196.785035 107.242817 
L 196.785035 106.925076 
L 196.356234 107.118445 
L 196.356234 106.479669 
L 195.713031 106.769858 
L 195.713031 106.448541 
L 195.284229 106.642616 
L 195.284229 106.32 
L 194.855427 106.514463 
L 194.855427 106.190538 
L 194.426625 106.385389 
L 194.426625 106.060144 
L 193.997823 106.255385 
L 193.997823 105.928809 
L 193.140219 106.321016 
L 193.140219 105.663273 
L 192.282615 106.057052 
L 192.282615 105.725854 
L 192.068214 105.824615 
L 192.068214 105.159217 
L 191.425011 105.455233 
L 191.425011 104.448385 
L 190.781808 104.74396 
L 190.781808 104.405799 
L 189.0666 105.202453 
L 188.852199 104.275472 
L 188.637798 104.375516 
L 188.423397 104.130909 
L 188.423397 103.438481 
L 187.780194 103.738094 
L 187.780194 103.389618 
L 186.92259 103.791407 
L 186.92259 103.089231 
L 186.708189 103.189679 
L 186.708189 102.836915 
L 186.493788 102.937297 
L 186.493788 102.583299 
L 185.850585 102.885019 
L 185.850585 102.529119 
L 184.992981 102.93375 
L 184.992981 102.575593 
L 183.706575 103.188489 
L 183.706575 102.465296 
L 183.277774 102.670383 
L 183.063373 102.044244 
L 182.42017 102.35265 
L 182.205769 102.088598 
L 182.205769 101.350843 
L 181.776967 101.556242 
L 181.776967 100.813082 
L 181.348165 101.018138 
L 181.348165 100.644324 
L 180.27616 101.16 
L 180.27616 100.405621 
L 179.632957 100.716164 
L 179.418556 100.44 
L 177.917749 101.173981 
L 177.917749 100.79 
L 177.274546 101.107782 
L 177.274546 100.334266 
L 176.845744 100.546031 
L 176.845744 99.375211 
L 176.631343 99.480339 
L 176.631343 99.087458 
L 176.416942 99.192475 
L 176.416942 98.798074 
L 175.130536 99.432 
L 175.130536 98.634842 
L 174.701734 98.846897 
L 174.487333 98.149091 
L 173.415328 98.68186 
L 173.415328 97.868571 
L 172.557724 98.296891 
L 172.128922 98.101856 
L 171.70012 98.318287 
L 171.70012 97.490667 
L 171.271318 97.706568 
L 171.271318 97.29 
L 171.056917 97.397973 
L 171.056917 96.979701 
L 169.984913 97.522105 
L 169.984913 96.252689 
L 168.912908 96.796164 
L 168.912908 95.938626 
L 168.484106 96.156386 
L 168.484106 95.291613 
L 168.055304 95.508721 
L 168.055304 95.073333 
L 167.412101 95.4 
L 167.412101 94.522115 
L 166.983299 94.739532 
L 166.983299 94.2975 
L 165.696893 94.954826 
L 165.696893 94.508246 
L 164.196086 95.287284 
L 164.196086 94.382308 
L 163.767284 94.605916 
L 163.552883 94.261935 
L 162.90968 94.599481 
L 162.90968 94.14 
L 162.052076 94.592941 
L 162.052076 94.129689 
L 161.623274 94.357241 
L 161.623274 93.891316 
L 161.408873 94.005074 
L 161.408873 93.53703 
L 161.194472 93.650579 
L 161.194472 93.180397 
L 160.551269 93.521531 
L 160.551269 93.048 
L 159.264863 93.73697 
L 159.264863 92.777838 
L 158.407259 93.24 
L 158.407259 92.269352 
L 158.192858 92.384615 
L 158.192858 91.896164 
L 157.764056 92.126598 
L 157.764056 91.635181 
L 157.120854 91.981869 
L 157.120854 91.486794 
L 156.692052 91.718609 
L 156.692052 91.220488 
L 156.26325 91.452587 
L 156.26325 90.951384 
L 155.191245 91.535406 
L 155.191245 91.029027 
L 153.904839 91.739463 
L 153.904839 90.71289 
L 153.476037 90.95027 
L 153.476037 89.392174 
L 152.618433 89.863358 
L 152.618433 88.809231 
L 151.760829 89.281328 
L 151.760829 88.748318 
L 150.903225 89.224358 
L 150.903225 88.686269 
L 150.474423 88.925393 
L 150.474423 88.383715 
L 150.260022 88.503158 
L 150.260022 87.958644 
L 148.973616 88.68 
L 148.973616 87.01931 
L 148.759215 87.138656 
L 148.759215 86.58 
L 147.258408 87.422456 
L 147.258408 86.855625 
L 147.044007 86.976986 
L 147.044007 86.407059 
L 145.114398 87.513054 
L 145.114398 85.765301 
L 142.327186 87.398351 
L 142.327186 86.798678 
L 142.112785 86.926957 
L 142.112785 86.323817 
L 141.469582 86.708894 
L 141.469582 86.100251 
L 141.04078 86.357647 
L 141.04078 85.744421 
L 140.183176 86.261656 
L 140.183176 85.641702 
L 139.111171 86.295484 
L 138.89677 85.798963 
L 137.824765 86.464454 
L 137.824765 85.827309 
L 137.181562 86.230308 
L 137.181562 85.58702 
L 136.538359 85.992 
L 136.538359 85.34245 
L 136.323958 85.4775 
L 136.323958 84.167354 
L 136.109557 84.300674 
L 136.109557 83.64 
L 135.680755 83.906063 
L 135.680755 82.570909 
L 135.466354 82.702415 
L 135.466354 82.029041 
L 135.251953 82.159908 
L 135.251953 81.482202 
L 134.60875 81.874642 
L 134.60875 81.19 
L 134.394349 81.320742 
L 134.394349 79.243738 
L 133.107943 80.017251 
L 133.107943 79.310309 
L 132.679141 79.57031 
L 132.679141 78.857225 
L 131.178335 79.777226 
L 131.178335 79.050732 
L 130.320731 79.584828 
L 130.320731 78.109307 
L 129.034325 78.912362 
L 129.034325 78.159899 
L 127.96232 78.84 
L 127.96232 78.075806 
L 127.747919 78.212308 
L 127.747919 76.668866 
L 126.890315 77.20875 
L 126.890315 76.424334 
L 126.032711 76.96876 
L 126.032711 75.373687 
L 124.531904 76.32973 
L 124.531904 73.866703 
L 124.317503 74.000656 
L 124.317503 73.168767 
L 124.103102 73.301538 
L 124.103102 72.46314 
L 123.888701 72.594696 
L 123.888701 71.749695 
L 123.459899 72.011031 
L 123.459899 71.157318 
L 122.602295 71.680678 
L 122.602295 70.813938 
L 121.744691 71.34086 
L 121.744691 70.46069 
L 119.815082 71.671858 
L 119.815082 70.766627 
L 119.600681 70.902908 
L 119.600681 69.99 
L 119.38628 70.124776 
L 119.38628 69.204072 
L 119.171879 69.337297 
L 119.171879 68.408675 
L 118.957478 68.540302 
L 118.957478 65.713171 
L 117.671073 66.474783 
L 117.671073 65.505421 
L 116.813469 66.018549 
L 116.813469 64.04 
L 114.669459 65.325246 
L 114.669459 64.297895 
L 112.311048 65.779249 
L 112.311048 64.711233 
L 109.952637 66.272028 
L 109.952637 65.16 
L 108.45183 66.193846 
L 108.45183 65.048824 
L 106.30782 66.583511 
L 106.30782 64.190769 
L 103.306207 66.430244 
L 103.306207 65.16 
L 102.877405 65.491852 
L 102.877405 64.201983 
L 102.019801 64.863529 
L 102.019801 63.543797 
L 100.304593 64.895895 
L 100.304593 63.524211 
L 97.946182 65.485161 
L 97.946182 64.04 
L 97.302979 64.592113 
L 97.302979 63.115472 
L 97.088578 63.296872 
L 97.088578 61.8 
L 95.158969 63.454925 
L 95.158969 60.297286 
L 92.586157 62.57262 
L 90.87095 64.258994 
L 90.87095 62.498427 
L 88.512539 64.978922 
L 88.083737 65.465455 
L 88.083737 63.561951 
L 87.226133 64.53 
L 87.226133 62.560755 
L 86.368529 63.534194 
L 86.368529 59.428235 
L 84.653321 61.336552 
L 84.653321 59.14 
L 84.224519 59.623099 
L 84.224519 57.36766 
L 83.581316 58.074783 
L 83.581316 55.74219 
L 81.437306 58.175433 
L 80.794103 58.981935 
L 80.794103 56.39122 
L 79.293296 58.295172 
L 79.293296 52.692632 
L 78.864494 53.19 
L 78.864494 50.267027 
L 78.221292 50.973333 
L 78.221292 47.920374 
L 76.934886 49.291485 
L 76.934886 46.008 
L 75.219678 47.848696 
L 74.147673 49.171034 
L 74.147673 45.351628 
L 72.646866 47.169114 
L 72.432465 47.455385 
L 72.432465 43.167273 
L 70.931658 45 
L 69.859653 46.550769 
L 69.859653 41.3775 
L 69.645252 41.64 
L 69.645252 36.220645 
L 68.358846 37.44 
L 68.358846 31.254545 
L 66.858039 32.19 
L 65.571634 33.24 
L 64.499629 34.375135 
L 63.427624 35.865 
L 62.57002 37.44 
L 61.712416 39.54 
L 61.069213 41.64 
L 60.42601 44.44 
L 59.782807 48.36 
L 59.139604 54.24 
L 58.710802 60.12 
L 58.282 68.94 
L 58.282 24.84 
L 56.781193 24.84 
L 56.781193 24.84 
" clip-path="url(#p7e3c9fa636)" style="fill: none; stroke: #17becf; stroke-width: 2; stroke-linecap: square"/>
   </g>
   <g id="patch_3">
    <path d="M 44.099375 395.28 
L 44.099375 7.2 
" style="fill: none; stroke: #000000; stroke-width: 0.8; stroke-linejoin: miter; stroke-linecap: square"/>
   </g>
   <g id="patch_4">
    <path d="M 323.099375 395.28 
L 323.099375 7.2 
" style="fill: none; stroke: #000000; stroke-width: 0.8; stroke-linejoin: miter; stroke-linecap: square"/>
   </g>
   <g id="patch_5">
    <path d="M 44.099375 395.28 
L 323.099375 395.28 
" style="fill: none; stroke: #000000; stroke-width: 0.8; stroke-linejoin: miter; stroke-linecap: square"/>
   </g>
   <g id="patch_6">
    <path d="M 44.099375 7.2 
L 323.099375 7.2 
" style="fill: none; stroke: #000000; stroke-width: 0.8; stroke-linejoin: miter; stroke-linecap: square"/>
   </g>
   <g id="legend_1">
    <g id="patch_7">
     <path d="M 52.499375 389.28 
L 288.06125 389.28 
Q 290.46125 389.28 290.46125 386.88 
L 290.46125 218.27625 
Q 290.46125 215.87625 288.06125 215.87625 
L 52.499375 215.87625 
Q 50.099375 215.87625 50.099375 218.27625 
L 50.099375 386.88 
Q 50.099375 389.28 52.499375 389.28 
z
" style="fill: #ffffff; opacity: 0.8; stroke: #cccccc; stroke-linejoin: miter"/>
    </g>
    <g id="line2d_23">
     <path d="M 54.899375 224.87625 
L 66.899375 224.87625 
L 78.899375 224.87625 
" style="fill: none; stroke: #1f77b4; stroke-width: 2; stroke-linecap: square"/>
    </g>
    <g id="text_15">
     <text style="font: 12px 'Times New Roman'; text-anchor: start" x="88.499375" y="229.07625" transform="rotate(-0 88.499375 229.07625)">Internal Medicine (AP=0.9610, N=5525)</text>
    </g>
    <g id="line2d_24">
     <path d="M 54.899375 241.843125 
L 66.899375 241.843125 
L 78.899375 241.843125 
" style="fill: none; stroke: #ff7f0e; stroke-width: 2; stroke-linecap: square"/>
    </g>
    <g id="text_16">
     <text style="font: 12px 'Times New Roman'; text-anchor: start" x="88.499375" y="246.043125" transform="rotate(-0 88.499375 246.043125)">Obstetrics (AP=0.9878, N=540)</text>
    </g>
    <g id="line2d_25">
     <path d="M 54.899375 258.81 
L 66.899375 258.81 
L 78.899375 258.81 
" style="fill: none; stroke: #2ca02c; stroke-width: 2; stroke-linecap: square"/>
    </g>
    <g id="text_17">
     <text style="font: 12px 'Times New Roman'; text-anchor: start" x="88.499375" y="263.01" transform="rotate(-0 88.499375 263.01)">Surgery (AP=0.9899, N=7743)</text>
    </g>
    <g id="line2d_26">
     <path d="M 54.899375 275.799375 
L 66.899375 275.799375 
L 78.899375 275.799375 
" style="fill: none; stroke: #d62728; stroke-width: 2; stroke-linecap: square"/>
    </g>
    <g id="text_18">
     <text style="font: 12px 'Times New Roman'; text-anchor: start" x="88.499375" y="279.999375" transform="rotate(-0 88.499375 279.999375)">Ophthalmology (AP=0.9819, N=263)</text>
    </g>
    <g id="line2d_27">
     <path d="M 54.899375 292.78875 
L 66.899375 292.78875 
L 78.899375 292.78875 
" style="fill: none; stroke: #9467bd; stroke-width: 2; stroke-linecap: square"/>
    </g>
    <g id="text_19">
     <text style="font: 12px 'Times New Roman'; text-anchor: start" x="88.499375" y="296.98875" transform="rotate(-0 88.499375 296.98875)">Gynecology (AP=0.7262, N=226)</text>
    </g>
    <g id="line2d_28">
     <path d="M 54.899375 309.778125 
L 66.899375 309.778125 
L 78.899375 309.778125 
" style="fill: none; stroke: #8c564b; stroke-width: 2; stroke-linecap: square"/>
    </g>
    <g id="text_20">
     <text style="font: 12px 'Times New Roman'; text-anchor: start" x="88.499375" y="313.978125" transform="rotate(-0 88.499375 313.978125)">Otolaryngology (AP=0.9538, N=573)</text>
    </g>
    <g id="line2d_29">
     <path d="M 54.899375 326.7675 
L 66.899375 326.7675 
L 78.899375 326.7675 
" style="fill: none; stroke: #e377c2; stroke-width: 2; stroke-linecap: square"/>
    </g>
    <g id="text_21">
     <text style="font: 12px 'Times New Roman'; text-anchor: start" x="88.499375" y="330.9675" transform="rotate(-0 88.499375 330.9675)">Neurosurgery (AP=0.0045, N=7)</text>
    </g>
    <g id="line2d_30">
     <path d="M 54.899375 343.756875 
L 66.899375 343.756875 
L 78.899375 343.756875 
" style="fill: none; stroke: #7f7f7f; stroke-width: 2; stroke-linecap: square"/>
    </g>
    <g id="text_22">
     <text style="font: 12px 'Times New Roman'; text-anchor: start" x="88.499375" y="347.956875" transform="rotate(-0 88.499375 347.956875)">Orthopedics (AP=0.1041, N=55)</text>
    </g>
    <g id="line2d_31">
     <path d="M 54.899375 360.72375 
L 66.899375 360.72375 
L 78.899375 360.72375 
" style="fill: none; stroke: #bcbd22; stroke-width: 2; stroke-linecap: square"/>
    </g>
    <g id="text_23">
     <text style="font: 12px 'Times New Roman'; text-anchor: start" x="88.499375" y="364.92375" transform="rotate(-0 88.499375 364.92375)">Trauma Center (AP=0.5515, N=5)</text>
    </g>
    <g id="line2d_32">
     <path d="M 54.899375 377.690625 
L 66.899375 377.690625 
L 78.899375 377.690625 
" style="fill: none; stroke: #17becf; stroke-width: 2; stroke-linecap: square"/>
    </g>
    <g id="text_24">
     <text style="font: 12px 'Times New Roman'; text-anchor: start" x="88.499375" y="381.890625" transform="rotate(-0 88.499375 381.890625)">Neurology (AP=0.7785, N=1183)</text>
    </g>
   </g>
  </g>
 </g>
 <defs>
  <clipPath id="p7e3c9fa636">
   <rect x="44.099375" y="7.2" width="279" height="388.08"/>
  </clipPath>
 </defs>
</svg>
